<svg xmlns="http://www.w3.org/2000/svg" width="22.001" height="22" viewBox="0 0 22.001 22"><defs><style>.a{fill:#3a405e;}</style></defs><path class="a" d="M19.025,8C12.814,8,8,12.54,8,18.671a10.429,10.429,0,0,0,3.463,7.893c.37.333.294.526.357,2.583a.884.884,0,0,0,1.237.779c2.347-1.034,2.377-1.115,2.775-1.007C22.631,30.791,30,26.439,30,18.671,30,12.54,25.237,8,19.025,8Zm6.62,8.212-3.238,5.126a1.658,1.658,0,0,1-2.391.44L17.439,19.85a.665.665,0,0,0-.8,0l-3.476,2.637a.523.523,0,0,1-.759-.7l3.238-5.126a1.657,1.657,0,0,1,2.391-.44l2.575,1.928a.665.665,0,0,0,.8,0l3.478-2.634a.522.522,0,0,1,.758.693Z" transform="translate(-8 -8)"/></svg>