<svg xmlns="http://www.w3.org/2000/svg" width="31.994" height="32" viewBox="0 0 31.994 32"><defs><style>.a{fill:#fff;}</style></defs><path class="a" d="M21.71,17.806C20.774,12.045,18.568,8,16,8s-4.774,4.045-5.71,9.806ZM9.806,24a40.438,40.438,0,0,0,.213,4.129H21.974A40.438,40.438,0,0,0,22.187,24a40.438,40.438,0,0,0-.213-4.129H10.019A40.438,40.438,0,0,0,9.806,24Zm20.948-6.194A16.034,16.034,0,0,0,20.561,8.671a21.775,21.775,0,0,1,3.226,9.135ZM11.432,8.671A16.023,16.023,0,0,0,1.245,17.806H8.213a21.686,21.686,0,0,1,3.219-9.135Zm20.013,11.2h-7.4c.135,1.355.213,2.742.213,4.129s-.077,2.774-.213,4.129h7.394A15.862,15.862,0,0,0,31.994,24a16.139,16.139,0,0,0-.548-4.129ZM7.742,24c0-1.387.077-2.774.213-4.129H.555a15.641,15.641,0,0,0,0,8.258H7.948C7.819,26.774,7.742,25.387,7.742,24Zm2.548,6.194C11.226,35.955,13.432,40,16,40s4.774-4.045,5.71-9.806Zm10.277,9.135a16.049,16.049,0,0,0,10.194-9.135H23.794A21.775,21.775,0,0,1,20.568,39.329ZM1.245,30.194a16.034,16.034,0,0,0,10.194,9.135,21.775,21.775,0,0,1-3.226-9.135H1.245Z" transform="translate(0 -8)"/></svg>