<svg xmlns="http://www.w3.org/2000/svg" width="25.621" height="25.615" viewBox="0 0 25.621 25.615"><defs><style>.a{fill:#3a405e;}</style></defs><path class="a" d="M12.738,38.065a6.567,6.567,0,1,0,6.567,6.567A6.557,6.557,0,0,0,12.738,38.065Zm0,10.837a4.27,4.27,0,1,1,4.27-4.27A4.277,4.277,0,0,1,12.738,48.9ZM21.106,37.8a1.532,1.532,0,1,1-1.532-1.532A1.528,1.528,0,0,1,21.106,37.8Zm4.35,1.555a7.581,7.581,0,0,0-2.069-5.367,7.63,7.63,0,0,0-5.367-2.069c-2.115-.12-8.454-.12-10.568,0a7.62,7.62,0,0,0-5.367,2.063A7.605,7.605,0,0,0,.015,39.346c-.12,2.115-.12,8.454,0,10.568a7.581,7.581,0,0,0,2.069,5.367A7.64,7.64,0,0,0,7.451,57.35c2.115.12,8.454.12,10.568,0a7.581,7.581,0,0,0,5.367-2.069,7.63,7.63,0,0,0,2.069-5.367C25.576,47.8,25.576,41.466,25.456,39.351ZM22.724,52.183a4.323,4.323,0,0,1-2.435,2.435c-1.686.669-5.687.514-7.551.514s-5.87.149-7.551-.514a4.323,4.323,0,0,1-2.435-2.435c-.669-1.686-.514-5.687-.514-7.551s-.149-5.87.514-7.551a4.323,4.323,0,0,1,2.435-2.435c1.686-.669,5.687-.514,7.551-.514s5.87-.149,7.551.514a4.323,4.323,0,0,1,2.435,2.435c.669,1.686.514,5.687.514,7.551S23.393,50.5,22.724,52.183Z" transform="translate(0.075 -31.825)"/></svg>