<svg xmlns="http://www.w3.org/2000/svg" width="16" height="16" viewBox="0 0 16 16"><defs><style>.a{fill:#fcfeff;}</style></defs><path class="a" d="M1.143,38.286H6.286V33.143A1.143,1.143,0,0,1,7.429,32H8.571a1.143,1.143,0,0,1,1.143,1.143v5.143h5.143A1.143,1.143,0,0,1,16,39.429v1.143a1.143,1.143,0,0,1-1.143,1.143H9.714v5.143A1.143,1.143,0,0,1,8.571,48H7.429a1.143,1.143,0,0,1-1.143-1.143V41.714H1.143A1.143,1.143,0,0,1,0,40.571V39.429A1.143,1.143,0,0,1,1.143,38.286Z" transform="translate(0 -32)"/></svg>