<svg xmlns="http://www.w3.org/2000/svg" width="22" height="22" viewBox="0 0 22 22"><defs><style>.a{fill:#3a405e;}</style></defs><path class="a" d="M4.622,45.9a2.311,2.311,0,1,1-2.311-2.311H4.622Zm1.165,0a2.311,2.311,0,0,1,4.622,0v5.787a2.311,2.311,0,1,1-4.622,0ZM8.1,36.622a2.311,2.311,0,1,1,2.311-2.311v2.311H8.1Zm0,1.165a2.311,2.311,0,1,1,0,4.622H2.311a2.311,2.311,0,1,1,0-4.622H8.1Zm9.28,2.311a2.311,2.311,0,1,1,2.311,2.311H17.378Zm-1.165,0a2.311,2.311,0,1,1-4.622,0V34.311a2.311,2.311,0,0,1,4.622,0ZM13.9,49.378a2.311,2.311,0,1,1-2.311,2.311V49.378Zm0-1.165a2.311,2.311,0,1,1,0-4.622h5.787a2.311,2.311,0,1,1,0,4.622Z" transform="translate(0 -32)"/></svg>