<svg xmlns="http://www.w3.org/2000/svg" width="24.443" height="22" viewBox="0 0 24.443 22"><defs><style>.a{fill:#3a405e;}</style></defs><path class="a" d="M31.407,40.332a9.583,9.583,0,0,1-5.557,10.221,2.539,2.539,0,1,1-4.905,1.041c-.316.009-3.153,0-3.748-.031a2.54,2.54,0,1,1-4.949-.9,10.209,10.209,0,0,1-4.892-3.477,1.283,1.283,0,0,1,1.023-2.053c2.274,0,1.582-2.66,2.119-5.415C11.4,35.1,16.23,32,20.894,32,25.927,32,30.576,35.47,31.407,40.332ZM25.089,49.5a8.906,8.906,0,0,0,4.729-5.016c1.988-6.045-3.15-11.2-8.923-11.2-4.1,0-8.364,2.722-9.137,6.679-.468,2.4.246,6.45-3.376,6.45a9.078,9.078,0,0,0,4.6,3.145,2.539,2.539,0,0,1,3.92.7c.7.049,3.889.058,4.317.04a2.538,2.538,0,0,1,3.869-.806ZM16.82,39.618a1.249,1.249,0,1,1,2.5,0A1.249,1.249,0,1,1,16.82,39.618Zm5.724,0a1.249,1.249,0,1,1,2.5,0A1.249,1.249,0,1,1,22.544,39.618Zm-6.021,3.471a.642.642,0,0,1,1.258-.256l0,.014a3.056,3.056,0,0,0,3.149,2.115,3.168,3.168,0,0,0,3.148-2.1.643.643,0,0,1,1.251.295,4.422,4.422,0,0,1-4.491,3.089,4.309,4.309,0,0,1-4.317-3.155Z" transform="translate(-7.095 -32)"/></svg>