<svg xmlns="http://www.w3.org/2000/svg" width="36" height="36" viewBox="0 0 36 36"><defs><style>.a{fill:#fcfeff;}</style></defs><path class="a" d="M30.608,37.231A17.845,17.845,0,0,0,2.531,58.759L0,68l9.458-2.483a17.785,17.785,0,0,0,8.526,2.17h.008A17.726,17.726,0,0,0,30.608,37.231ZM17.992,64.681a14.8,14.8,0,0,1-7.554-2.065L9.9,62.295,4.291,63.765l1.495-5.472-.354-.563a14.856,14.856,0,1,1,27.554-7.883A14.993,14.993,0,0,1,17.992,64.681Zm8.132-11.105c-.442-.225-2.636-1.3-3.046-1.446s-.707-.225-1,.225S20.925,53.8,20.66,54.106s-.522.338-.964.113c-2.62-1.31-4.339-2.338-6.067-5.3-.458-.787.458-.731,1.31-2.435a.826.826,0,0,0-.04-.779c-.113-.225-1-2.419-1.374-3.311-.362-.868-.731-.747-1-.763-.257-.016-.554-.016-.852-.016a1.651,1.651,0,0,0-1.189.554A5.009,5.009,0,0,0,8.92,45.886,8.732,8.732,0,0,0,10.736,50.5c.225.3,3.142,4.8,7.618,6.734,2.829,1.221,3.938,1.326,5.352,1.117.86-.129,2.636-1.077,3.005-2.121a3.728,3.728,0,0,0,.257-2.121C26.863,53.905,26.566,53.793,26.124,53.576Z" transform="translate(0 -32)"/></svg>