<svg xmlns="http://www.w3.org/2000/svg" width="25.607" height="25.607" viewBox="0 0 25.607 25.607"><defs><style>.a{fill:#3a405e;}</style></defs><path class="a" d="M21.771,35.721A12.693,12.693,0,0,0,1.8,51.034L0,57.607l6.727-1.766a12.65,12.65,0,0,0,6.064,1.543H12.8a12.608,12.608,0,0,0,8.974-21.663ZM12.8,55.246a10.528,10.528,0,0,1-5.373-1.469l-.383-.229-3.99,1.046L4.115,50.7l-.251-.4a10.567,10.567,0,1,1,19.6-5.607A10.664,10.664,0,0,1,12.8,55.246Zm5.784-7.9c-.314-.16-1.875-.926-2.166-1.029s-.5-.16-.714.16-.817,1.029-1.006,1.246-.372.24-.686.08a8.63,8.63,0,0,1-4.315-3.772c-.326-.56.326-.52.932-1.732a.588.588,0,0,0-.029-.554c-.08-.16-.714-1.72-.977-2.355-.257-.617-.52-.532-.714-.543s-.394-.011-.606-.011a1.175,1.175,0,0,0-.846.394,3.563,3.563,0,0,0-1.109,2.646,6.211,6.211,0,0,0,1.292,3.281,14.168,14.168,0,0,0,5.419,4.79c2.012.869,2.8.943,3.807.794A3.247,3.247,0,0,0,19,49.233a2.652,2.652,0,0,0,.183-1.509C19.108,47.581,18.9,47.5,18.582,47.347Z" transform="translate(0 -32)"/></svg>