<svg xmlns="http://www.w3.org/2000/svg" width="26.095" height="18.348" viewBox="0 0 26.095 18.348"><defs><style>.a{fill:#3a405e;}</style></defs><path class="a" d="M40.483,66.871a3.279,3.279,0,0,0-2.307-2.322C36.141,64,27.98,64,27.98,64s-8.16,0-10.2.549a3.279,3.279,0,0,0-2.307,2.322,36.918,36.918,0,0,0,0,12.643A3.23,3.23,0,0,0,17.785,81.8c2.035.549,10.2.549,10.2.549s8.16,0,10.2-.549a3.23,3.23,0,0,0,2.307-2.285,36.917,36.917,0,0,0,0-12.643Zm-15.171,10.2v-7.76l6.82,3.88Z" transform="translate(-14.933 -64)"/></svg>