<svg xmlns="http://www.w3.org/2000/svg" width="100%" height="auto" viewBox="0 0 501.307 386.354"><defs><style>.a{opacity:0.71;}.b,.f{fill:#e39ba5;}.c,.d,.m{fill:#fff;}.c{opacity:0.8;}.d,.e,.f,.g,.i,.k,.l,.n,.o,.p{stroke:#382e28;}.d,.e,.f,.g,.h,.i,.n,.o,.p{stroke-linecap:round;stroke-linejoin:round;}.e,.j,.o,.p{fill:#382e28;}.g,.k{fill:#3a405e;}.h,.i,.l,.n{fill:none;}.h{stroke:#858585;}.k,.l{stroke-miterlimit:10;}.n{stroke-width:0.821px;}.o{stroke-width:0.725px;}.p{stroke-width:0.883px;}</style></defs><g transform="translate(-17.261 -33.379)"><g transform="translate(17.261 33.379)"><g class="a" transform="translate(0 0)"><path class="b" d="M290.621,46.106S223.816,22.351,158.24,60.17,59.576,173.063,31.162,233.2s-12.059,121.307,38,149.2,84.1-13.224,154.321-15.226,89.111,8.038,147.384-31.634S439.672,202.18,393.7,132.858,290.621,46.106,290.621,46.106Z" transform="translate(-17.261 -38.742)"/><path class="c" d="M290.621,46.106S223.816,22.351,158.24,60.17,59.576,173.063,31.162,233.2s-12.059,121.307,38,149.2,84.1-13.224,154.321-15.226,89.111,8.038,147.384-31.634S439.672,202.18,393.7,132.858,290.621,46.106,290.621,46.106Z" transform="translate(-17.261 -38.742)"/></g></g><g transform="translate(46.197 196.027)"><g transform="translate(0 191.366)"><path class="d" d="M56.509,444.576c-.472.158-4.725,15.437-5.828,17.485s1.732,3.781,3.15,4.883,5.514,5.986,10.081,7.561,10.869,1.26,10.081-.158-6.774-4.41-8.191-6.3S62.5,458.28,62.5,458.28l5.671-11.026Z" transform="translate(-50.433 -444.576)"/><path class="e" d="M68.846,447.308l-.33-.136-11.3-2.6a17.984,17.984,0,0,0-1.24,3.4A44.762,44.762,0,0,0,66.072,452.7Z" transform="translate(-51.141 -444.576)"/><path class="f" d="M65.8,469.966c-1.046-1.395-2.348-6.045-2.96-8.389a12.233,12.233,0,0,0-2.553,1.616A9.659,9.659,0,0,0,58.4,465.4l-6.152-5.79a38.517,38.517,0,0,1-1.567,4.372c-1.1,2.048,1.732,3.781,3.15,4.883s5.514,5.986,10.081,7.561,10.869,1.26,10.081-.158S67.221,471.856,65.8,469.966Z" transform="translate(-50.433 -446.495)"/></g><g transform="translate(67.51 190.737)"><path class="d" d="M127.824,448.894s8.506,24.416,9.136,25.834,2.678,1.732,4.1,1.418,7.246-3.308,12.129-3.938,8.191-4.568,8.349-5.829-11.184.946-14.492,0-6.143-3.938-6.459-5.04-1.418-17.485-1.418-17.485Z" transform="translate(-127.824 -443.854)"/><path class="e" d="M139.165,443.854l-11.341,5.04s.407,1.169,1.049,3.009a35.359,35.359,0,0,0,10.628-3.214C139.306,445.949,139.165,443.854,139.165,443.854Z" transform="translate(-127.824 -443.854)"/><path class="f" d="M154.33,475.112c4.883-.631,8.191-4.568,8.349-5.829s-11.184.946-14.492,0a12.086,12.086,0,0,1-4.6-2.682,7.449,7.449,0,0,0-.128.95,9.848,9.848,0,0,0,.157,3.15s-4.3,2.21-6.821,3.378c.685,1.914,1.174,3.254,1.308,3.554.63,1.418,2.678,1.732,4.1,1.418S149.447,475.742,154.33,475.112Z" transform="translate(-128.97 -446.758)"/></g><g transform="translate(5.289 34.286)"><path class="d" d="M111.586,278.919s3.645-1.133,8.959,5.178,16.608,38.53,16.608,38.53-2.325,6.311-8.3,5.314S112.7,294.3,112.7,294.3,108.937,276.731,111.586,278.919Z" transform="translate(-63.41 -266.32)"/><path class="g" d="M83.73,264.5s2.55,7.2,1.349,10.5-9.15,1.8-13.05,6.6,4.95,38.849,4.95,38.849-9.3,18-11.249,29.7-3.15,48.448-3.45,50.1-4.95,19.8-4.05,19.649,8.1,3.9,10.35,4.65,3.3,1.2,3.3,1.2,12.6-18.75,16.349-27.6,7.8-29.1,7.8-29.1l20.849,54.9,13.8-3.9-2.4-48.6s-1.5-18.6-6.15-30.6a131.133,131.133,0,0,0-11.549-22.35s4.05-14.7,2.85-21.6-8.55-19.8-8.55-19.8-3.75-.15-5.25-1.5-4.2-10.35-4.2-10.35Z" transform="translate(-56.703 -264.503)"/><path class="d" d="M112.64,288.52l-4.262-10.4c-.352-.642-.564-1.015-.564-1.015s-3.75-.15-5.25-1.5-4.2-10.35-4.2-10.35l-11.7-.749s2.55,7.2,1.349,10.5c-.7,1.939-3.741,2.226-6.917,3.1a11.837,11.837,0,0,1,4.849,5.884c2.77,7.3,5.289,10.325,5.289,10.325Z" transform="translate(-59.637 -264.503)"/><path class="e" d="M99.926,267.613c-.45-1.37-.748-2.36-.748-2.36l-11.7-.749s2.055,5.82,1.595,9.392A24.8,24.8,0,0,0,99.926,267.613Z" transform="translate(-60.452 -264.503)"/><line class="h" y1="18.98" x2="4.307" transform="translate(39.326 85.567)"/><path class="d" d="M56.969,440.081l-.473,3.465a22.838,22.838,0,0,0,7.4,4.883,63.25,63.25,0,0,0,6.931,2.363l3.465-4.568a64.544,64.544,0,0,1-9.451-3.781c-5.986-2.835-7.561-3.466-7.561-3.466Z" transform="translate(-56.496 -286.781)"/><path class="d" d="M122.587,444.918l1.732,4.568s8.979-1.261,12.287-2.835,5.2-2.363,5.2-2.363l-.63-5.671Z" transform="translate(-64.935 -286.735)"/></g><path class="f" d="M115.32,298.663c-1.2-6.9-8.55-19.8-8.55-19.8a15.532,15.532,0,0,1-3.413-.57c.038.091.073.174.113.27.75,1.8,2.355,6.123,2.355,6.123l-16.949,1.8s-.1-.181-1.456-2.073c-1.549-2.156-3.03-4.163-4.623-5.24-2.9.723-6.583,1.368-8.877,4.19-3.823,4.706,4.609,37.529,4.939,38.807,27.226.59,33.61-1.908,33.61-1.908S116.52,305.563,115.32,298.663Z" transform="translate(-53.305 -231.978)"/><g transform="translate(10.799)"><path class="g" d="M97.078,240.888s3.45-1.65,2.4-9.15-15.3-7.8-23.4-4.65-14.549,6.45-13.049,15.9,8.7,11.7,10.049,12.9a4.418,4.418,0,0,1,1.2,5.1c-.9,1.65-2.1,1.35-2.1,1.35s-.15,1.65,4.049,2.1a7.626,7.626,0,0,0,7.95-5.4c.6-2.55-1.05-6.6,1.349-9.9s5.1-6.75,4.95-9-.3-3.15-.3-3.15Z" transform="translate(-62.812 -225.198)"/><path class="d" d="M89.9,236.735a20.64,20.64,0,0,1-4.366,12.585c-4.623,5.65-6.934,6.164-6.934,6.164s-1.284,5.394,9.5,9.246,13.356-2.825,13.869-7.7-.77-13.355-3.082-15.924S89.9,236.735,89.9,236.735Z" transform="translate(-64.822 -226.671)"/><path class="d" d="M81.041,259.081s-4.366-7.191-6.678-2.825.514,7.191,3.6,7.191a13.439,13.439,0,0,0,4.88-.771" transform="translate(-64.179 -228.984)"/><path class="i" d="M96.42,245.248s1.2,2.7,2.85,2.7,3.3-1.049,2.55.9a4.37,4.37,0,0,1-1.65,2.4" transform="translate(-67.103 -227.758)"/><path class="i" d="M91.777,255.927a8.309,8.309,0,0,0,7.65-1.049" transform="translate(-66.511 -228.988)"/><path class="j" d="M92.795,247.567c.4,1,.351,1.96-.111,2.145s-1.16-.476-1.561-1.476-.35-1.96.112-2.145S92.4,246.568,92.795,247.567Z" transform="translate(-66.393 -227.862)"/><path class="j" d="M99.747,245.027c.4,1,.35,1.96-.112,2.145s-1.159-.476-1.56-1.476-.35-1.96.112-2.145S99.347,244.028,99.747,245.027Z" transform="translate(-67.28 -227.538)"/></g><path class="d" d="M157.33,307.149a3.557,3.557,0,0,0-2.418-.556c-1.115.128-2.649.41-2.649.983,0,.9,4.144,1.8,5.406.9C158.3,308.027,157.894,307.532,157.33,307.149Z" transform="translate(-63.435 -235.588)"/><path class="d" d="M158.027,309.78a3.567,3.567,0,0,0-2.418-.556c-1.115.129-2.649.41-2.649.984,0,.9,4.143,1.8,5.4.9C159,310.658,158.59,310.163,158.027,309.78Z" transform="translate(-63.524 -235.924)"/><path class="d" d="M157.831,312.575a3.557,3.557,0,0,0-2.418-.556c-1.115.128-2.649.41-2.649.983,0,.9,4.143,1.8,5.4.9C158.8,313.453,158.394,312.958,157.831,312.575Z" transform="translate(-63.499 -236.28)"/><g transform="matrix(0.985, 0.174, -0.174, 0.985, 56.274, 63.191)"><g transform="translate(0 0)"><g transform="translate(0 0)"><rect class="g" width="34.61" height="35.4" transform="translate(0 5.004) rotate(-8.312)"/><g transform="translate(3.874 8.112)"><path class="d" d="M24.152.91l-6.738,9.706-6.481-.873a2.1,2.1,0,0,0-1.758.595L0,19.475l1.244,8.514,34.246-5L32.858,4.973,27.2.463A2.1,2.1,0,0,0,24.152.91Z" transform="translate(0 3.931)"/><path class="d" d="M5.016,8.885A4.418,4.418,0,0,0,8.691,3.834,4.418,4.418,0,0,0,3.725.045,4.417,4.417,0,0,0,.049,5.1,4.418,4.418,0,0,0,5.016,8.885Z" transform="translate(5.833 0)"/></g></g></g></g><path class="d" d="M156.256,315.068a2.677,2.677,0,0,0-1.816-.418c-.837.1-1.991.309-1.991.74,0,.677,3.113,1.353,4.061.677C156.983,315.728,156.679,315.356,156.256,315.068Z" transform="translate(-63.459 -236.617)"/><path class="d" d="M82.148,287.91s-1.65-6.15-6.6-5.7-8.25,5.4-7.35,12.749,6.3,36,7.35,38.249,42.749,6.45,42.749,6.45,4.8,1.8,6.3,1.8,9.15-.3,9.9-1.2,1.65-1.5,1.049-1.95-4.8.15-5.85-.3a35.367,35.367,0,0,1-3.9-2.551s3.75-.3,4.35-.749,2.55-2.1,1.05-2.1-3.75.45-5.7.45-6.15,1.5-6.15,1.5a160.883,160.883,0,0,1-15.9-5.4c-6.3-2.7-14.7-6.45-14.7-6.45Z" transform="translate(-52.682 -232.475)"/><path class="f" d="M84.124,300.794,69.6,303.85l14.907-3.491-.919-4.846c-.613-3.234-.9-6.814-2.471-9.764a6.674,6.674,0,0,0-2.6-2.777,6.252,6.252,0,0,0-6.55.7,9.86,9.86,0,0,0-3.49,5.851c-1.06,4.807.219,9.612,1.124,14.324" transform="translate(-52.686 -232.494)"/><path class="f" d="M118.875,293.835l6.1-2.517-6.1,2.517c-.661-1.207-1.764-4.741-2.426-5.948-1.323-2.417-4.519-8.836-4.519-8.836a4.72,4.72,0,0,1,1.3-.1,8.672,8.672,0,0,1,4.987,2.359c3.079,2.73,4.84,6.482,6.763,10.01" transform="translate(-58.285 -232.06)"/></g><g transform="translate(338.18 279.291)"><g transform="translate(0 0)"><path class="b" d="M406.567,394.588a16.855,16.855,0,0,1-1.085-11.518c1.666-6.566,2.278-5.466.534-9.241s-3.238-4.553-2.206-7.8,2.821-8.311,2.176-11.385-2.049-4.326-1.414-7.647,2.583-4.915,1.632-8.54-2.627-3.453-1.991-6.773,1.516-3.583,1.267-6.581a9.4,9.4,0,0,1,.446-4.454s1.142,4.7,1.878,7.3a11.722,11.722,0,0,1,.5,6c-.362,1.9,3.94,5.18,4.065,6.678s1.041,3.15-.386,6.319-1.791,5.066-.964,7.192,1.71,1.8.893,6.071-3.285,4.29-1.452,7.591,2.933,4,2.083,6.3-2.187,4.991-1.666,6.566a14.5,14.5,0,0,0,1.1,2.259,9.011,9.011,0,0,1,.993,6.14l-.248,1.3.8,6.546-3.9,3.189S407.823,398.762,406.567,394.588Z" transform="translate(-387.494 -320.65)"/><path class="b" d="M399.728,397.145a12.69,12.69,0,0,1-3.228-9.282c.4-5.649,1.21-4.842-1.211-7.667s-4.035-3.228-3.632-6.054,1.211-7.264,0-9.685-2.825-3.228-2.825-6.053,1.614-4.439,0-7.264-3.228-2.422-3.228-5.246.807-5.246,0-7.668-.278-1.924-.278-1.924,1.892,3.942,3.1,5.96a8.6,8.6,0,0,1,1.615,4.843c0,1.614,4.842,3.631,5.246,4.842s1.614,2.422.807,5.246-.807,4.439.4,6.054,2.018,1.21,2.018,4.842-2.422,4.035,0,6.457,3.631,2.825,3.228,4.842-1.211,4.439-.4,5.65a9.475,9.475,0,0,0,1.013,1.187,9.287,9.287,0,0,1,2.62,6.452v.029l2.018,5.246-3.228,3.228S401.746,400.373,399.728,397.145Z" transform="translate(-385.155 -322.643)"/><path class="b" d="M427.167,397.223a12.69,12.69,0,0,0,3.228-9.282c-.4-5.649-1.211-4.842,1.211-7.667s4.035-3.228,3.631-6.054-1.211-7.264,0-9.685,2.825-3.228,2.825-6.053-1.615-4.439,0-7.264,3.228-2.422,3.228-5.246-.808-5.246,0-7.668-.159-1.034-.159-1.034-1.456,3.051-2.667,5.069a8.6,8.6,0,0,0-1.614,4.843c0,1.614-4.843,3.631-5.246,4.842s-1.615,2.422-.807,5.246.807,4.439-.4,6.054-2.018,1.21-2.018,4.842,2.422,4.035,0,6.457-3.632,2.825-3.228,4.842,1.211,4.439.4,5.65a9.281,9.281,0,0,1-.993,1.166,9.375,9.375,0,0,0-2.639,6.5h0L419.9,398.03l3.228,3.228S425.149,400.452,427.167,397.223Z" transform="translate(-389.592 -322.722)"/><path class="b" d="M419.244,399.851a10.239,10.239,0,0,0,1.349-7.815c-1.064-4.445-1.6-3.7-.044-6.264s2.789-3.1,2.1-5.3-1.919-5.625-1.273-7.712,1.824-2.942,1.452-5.191-1.868-3.322-.955-5.784,2.252-2.353,1.881-4.6-1.333-4.071-1.008-6.105-.382-1.506-.382-1.506a37.7,37.7,0,0,1-1.336,5.09,6.933,6.933,0,0,0-.648,4.068c.212,1.285-3.379,3.529-3.541,4.546s-.966,2.141.047,4.283,1.227,3.429.475,4.874-1.447,1.229-.97,4.121,2.459,2.9.85,5.141-2.521,2.727-1.934,4.28,1.548,3.375,1.064,4.445a23.8,23.8,0,0,1-2.414,3.369l.53,3.214-.917,4.443,3,2.146A8.013,8.013,0,0,0,419.244,399.851Z" transform="translate(-388.783 -324.335)"/><g transform="translate(8.454 72.228)"><path class="k" d="M428.724,403.45l-.951,23.666h-2.626v18.249H398.515V427.116h-2.46L395.1,403.45Z" transform="translate(-394.879 -403.45)"/><path class="l" d="M396.022,430.576h-1.175v43.986h3.632V448.828" transform="translate(-394.847 -406.914)"/><path class="l" d="M432.171,430.576h1v43.986h-3.632V448.828" transform="translate(-399.277 -406.914)"/></g></g></g><g transform="translate(25.589 60.325)"><g transform="translate(316.225 59.343)"><path class="i" d="M334.15,76.115A32.845,32.845,0,0,0,283.6,42.755a44.315,44.315,0,0,0-85.3,16.858c0,.545.022,1.085.041,1.626a28.847,28.847,0,0,0,3.942,56.321v.306H332.738a20.9,20.9,0,0,0,1.412-41.752Z" transform="translate(-177.396 -15.301)"/></g><g transform="translate(0 58.996)"><path class="i" d="M120.107,130.668a13.47,13.47,0,0,0-20.729-13.681A18.174,18.174,0,0,0,64.4,123.9c0,.223.01.445.017.666a11.831,11.831,0,0,0,1.616,23.1v.126h53.5a8.571,8.571,0,0,0,.578-17.123Z" transform="translate(-55.821 -105.728)"/></g><g transform="translate(316.748)"><path class="i" d="M402.415,29.46a8.943,8.943,0,0,0-8.808-10.616,8.921,8.921,0,0,0-4.984,1.513,12.091,12.091,0,0,0-23.272,4.6c0,.149.005.3.01.444a7.871,7.871,0,0,0,1.076,15.367v.084h35.592a5.7,5.7,0,0,0,.386-11.392Z" transform="translate(-359.645 -12.867)"/></g></g><g transform="translate(175.083 149.198)"><g transform="translate(0)"><path class="m" d="M326.921,178.415H281.467l-1.89,3.506a11.793,11.793,0,0,1-20.623,0l-1.89-3.506H211.608a8.67,8.67,0,0,0-8.782,8.553V421.046a8.67,8.67,0,0,0,8.782,8.553H326.921a8.67,8.67,0,0,0,8.782-8.553V186.968A8.67,8.67,0,0,0,326.921,178.415Z" transform="translate(-198.777 -172.395)"/><rect class="b" width="125.084" height="232.945" transform="translate(8.409 20.155)"/><g transform="translate(40.266 116.907)"><g transform="translate(16.084)"><path class="j" d="M263.589,311.215c0,.659.262,1.056.857,1.056s.848-.4.848-1.056v-5.6h.763v5.556c0,1.11-.513,1.852-1.643,1.852s-1.632-.742-1.632-1.852v-5.556h.806Z" transform="translate(-262.783 -305.544)"/><path class="j" d="M269.065,305.617c1.15,0,1.643.68,1.643,1.789v.879c0,1.161-.544,1.768-1.705,1.768h-.723v2.887h-.816v-7.324Zm-.063,3.7c.606,0,.9-.283.9-.983v-.974c0-.669-.241-1-.837-1h-.786v2.961Z" transform="translate(-263.381 -305.544)"/><path class="j" d="M271.951,312.941v-7.324h.816V312.2h2.092v.743Z" transform="translate(-263.954 -305.544)"/><path class="j" d="M275.923,307.375c0-1.12.555-1.842,1.674-1.842s1.684.722,1.684,1.842v3.787c0,1.11-.554,1.841-1.684,1.841s-1.674-.732-1.674-1.841Zm.806,3.829c0,.67.283,1.056.868,1.056s.869-.386.869-1.056v-3.87c0-.659-.273-1.057-.869-1.057s-.868.4-.868,1.057Z" transform="translate(-264.461 -305.533)"/><path class="j" d="M281.447,311.466l-.284,1.475h-.753l1.4-7.324h1.181l1.4,7.324h-.816l-.283-1.475Zm.1-.7h1.631l-.826-4.227Z" transform="translate(-265.034 -305.544)"/><path class="j" d="M287.431,305.617c1.14,0,1.663.691,1.663,1.821v3.694c0,1.119-.523,1.809-1.663,1.809h-1.716v-7.324Zm-.01,6.581c.586,0,.868-.366.868-1.035V307.4c0-.669-.282-1.035-.878-1.035h-.879V312.2Z" transform="translate(-265.711 -305.544)"/><path class="j" d="M291.283,305.617v7.324h-.816v-7.324Z" transform="translate(-266.318 -305.544)"/><path class="j" d="M293.083,312.941h-.732v-7.324h1.035l1.695,5.294v-5.294h.722v7.324h-.848l-1.873-5.921Z" transform="translate(-266.558 -305.544)"/><path class="j" d="M300.495,307.375V308h-.774v-.669c0-.659-.262-1.057-.858-1.057s-.858.4-.858,1.057v3.87c0,.659.273,1.056.858,1.056s.858-.4.858-1.056v-1.465h-.754v-.731h1.527v2.155c0,1.11-.523,1.841-1.653,1.841s-1.643-.732-1.643-1.841v-3.787c0-1.11.523-1.842,1.643-1.842S300.495,306.266,300.495,307.375Z" transform="translate(-267.177 -305.533)"/></g><rect class="d" width="37.373" height="6.279" transform="translate(0 10.537)"/><rect class="l" width="64.583" height="6.279" transform="translate(0 10.537)"/></g><g transform="translate(118.621 9.384)"><rect class="n" width="9.165" height="5.026"/><rect class="o" width="7.147" height="5.026"/><rect class="o" width="1.291" height="2.214" transform="translate(9.146 1.406)"/></g><g transform="translate(11.618 8.737)"><rect class="p" width="1.68" height="2.881" transform="translate(0 2.207)"/><rect class="p" width="1.68" height="3.892" transform="translate(2.641 1.195)"/><rect class="p" width="1.68" height="5.087" transform="translate(5.281)"/></g><line class="i" x2="124.722" transform="translate(8.115 16.129)"/><path class="g" d="M341.583,257.985a.929.929,0,0,0,.929-.929V232.1a.929.929,0,0,0-.929-.929H339.16V183.5a11.983,11.983,0,0,0-11.983-11.983H210.167A11.983,11.983,0,0,0,198.184,183.5v246a11.983,11.983,0,0,0,11.983,11.983h117.01A11.983,11.983,0,0,0,339.16,429.5V279.438h2.423a.928.928,0,0,0,.929-.928V267.4a.928.928,0,0,0-.929-.928H339.16v-8.492Zm-6.472,162.181a8.67,8.67,0,0,1-8.783,8.553H211.016a8.67,8.67,0,0,1-8.782-8.553V186.087a8.67,8.67,0,0,1,8.782-8.553H256.47l1.89,3.506a11.793,11.793,0,0,0,20.623,0l1.889-3.506h45.455a8.67,8.67,0,0,1,8.783,8.553Z" transform="translate(-198.184 -171.514)"/></g></g><g transform="translate(22.267 419.167)"><line class="i" x2="396.031"/></g></g></svg>