<svg xmlns="http://www.w3.org/2000/svg" width="103" height="74" viewBox="0 0 103 74"><defs><style>.a{fill:#d5d5d5;}</style></defs><g transform="translate(-10.97 -10.587)"><g transform="translate(81.164 10.541)"><g transform="translate(0 0)"><rect class="a" width="33" height="23" transform="translate(-0.194 0.046)"/></g></g><g transform="translate(45.326 10.541)"><g transform="translate(0 0)"><rect class="a" width="34" height="23" transform="translate(-0.356 0.046)"/></g></g><g transform="translate(10.541 10.541)"><g transform="translate(0 0)"><rect class="a" width="32" height="23" transform="translate(0.429 0.046)"/></g></g><g transform="translate(81.164 35.839)"><g transform="translate(0 0)"><rect class="a" width="33" height="23" transform="translate(-0.194 -0.252)"/></g></g><g transform="translate(45.326 35.839)"><g transform="translate(0 0)"><rect class="a" width="34" height="23" transform="translate(-0.356 -0.252)"/></g></g><g transform="translate(10.541 35.839)"><g transform="translate(0 0)"><rect class="a" width="32" height="23" transform="translate(0.429 -0.252)"/></g></g><g transform="translate(81.164 62.191)"><g transform="translate(0 0)"><rect class="a" width="33" height="22" transform="translate(-0.194 0.396)"/></g></g><g transform="translate(45.326 62.191)"><g transform="translate(0 0)"><rect class="a" width="34" height="22" transform="translate(-0.356 0.396)"/></g></g><g transform="translate(10.541 62.191)"><g transform="translate(0 0)"><rect class="a" width="32" height="22" transform="translate(0.429 0.396)"/></g></g></g></svg>