<svg xmlns="http://www.w3.org/2000/svg" width="17.195" height="18.336" viewBox="0 0 17.195 18.336"><defs><style>.a{fill:none;stroke:#434343;stroke-linecap:round;stroke-linejoin:round;}</style></defs><g transform="translate(0.5 0.501)"><path class="a" d="M239.54,408h-7.152L229,411.388V422.68a.753.753,0,0,0,.753.753h9.787a.753.753,0,0,0,.753-.753V408.753A.753.753,0,0,0,239.54,408Z" transform="translate(-229 -406.099)"/><path class="a" d="M250.776,419.154l3.011-.376c.413-.049.8-.34.753-.753l-1.882-14.3a.874.874,0,0,0-1.129-.753l-7.528.753" transform="translate(-238.354 -402.949)"/><path class="a" d="M232.388,408v2.635a.753.753,0,0,1-.753.753H229" transform="translate(-229 -406.099)"/></g></svg>