<svg xmlns="http://www.w3.org/2000/svg" width="291.783" height="276.506" viewBox="0 0 291.783 276.506"><defs><style>.a{opacity:0.627;}.b{fill:#8da2b4;}.c{fill:#6b7986;}.d{fill:#dedede;}.e{fill:#fdae2a;}.f{fill:#b5e8fd;}.g,.k{fill:#dd2830;}.h{fill:#cfcfcf;}.i{fill:#eee;}.j{fill:#91d4f0;}.l{fill:#c1c7ce;}.m{opacity:0.13;mix-blend-mode:multiply;isolation:isolate;}.n{fill:#98a6b4;}.o{fill:#f9f9f9;opacity:0.73;}</style></defs><g transform="translate(-965 -378.668)"><g class="a" transform="translate(-22.335 142.321)"><path class="b" d="M1219.836,396.413v15.064l-180.736-.31c-8.4-.016-15.66,5.449-17.34,13.051l-5.286,23.877-26.5,119.729c-1.779,8.03,3.118,15.652,10.8,18.468l.032.011-.9-.008a.21.21,0,0,1-.032-.012,20.241,20.241,0,0,1-12.546-18.725V396.413a20.222,20.222,0,0,1,20.219-20.219H1199.6A20.226,20.226,0,0,1,1219.836,396.413Z" transform="translate(0 -74.905)"/><path class="c" d="M6.5,0H60.742a6.5,6.5,0,0,1,6.5,6.5V19.375a0,0,0,0,1,0,0H0a0,0,0,0,1,0,0V6.5A6.5,6.5,0,0,1,6.5,0Z" transform="translate(1116.496 281.906)"/><g transform="translate(1003.535 236.347)"><path class="d" d="M1022.221,243.65V433.418a7.3,7.3,0,0,0,7.3,7.3H1165.71a7.311,7.311,0,0,0,7.313-7.3V243.65a7.311,7.311,0,0,0-7.313-7.3H1029.525A7.3,7.3,0,0,0,1022.221,243.65Z" transform="translate(-1022.221 -236.347)"/><path class="e" d="M1058.051,396.615v.286a.663.663,0,0,0,.664.664h.409Z" transform="translate(-1041.412 -322.189)"/><rect class="f" width="116.672" height="5.655" rx="2.828" transform="translate(133.119 50.73) rotate(180)"/><rect class="f" width="116.672" height="5.655" rx="2.828" transform="translate(132.766 76.105) rotate(180)"/><rect class="f" width="116.672" height="5.655" rx="2.828" transform="translate(133.022 101.833) rotate(180)"/><rect class="f" width="116.672" height="5.655" rx="2.828" transform="translate(133.277 127.562) rotate(180)"/><rect class="f" width="116.672" height="5.655" rx="2.828" transform="translate(133.277 153.29) rotate(-180)"/><rect class="f" width="116.672" height="5.655" rx="2.828" transform="translate(133.532 179.018) rotate(180)"/><rect class="g" width="22.375" height="30.324" transform="translate(119.374 6.664)"/><rect class="h" width="96.753" height="10.871" transform="translate(14.411 9.609)"/></g><g transform="translate(1014.66 268.084)"><path class="i" d="M1046.177,311.992V501.76a7.3,7.3,0,0,0,7.3,7.3h136.186a7.311,7.311,0,0,0,7.313-7.3V311.992a7.311,7.311,0,0,0-7.313-7.3H1053.48A7.3,7.3,0,0,0,1046.177,311.992Z" transform="translate(-1046.177 -304.689)"/><path class="e" d="M1082.007,464.956v.286a.663.663,0,0,0,.664.664h.408Z" transform="translate(-1065.368 -390.531)"/><rect class="h" width="116.672" height="5.655" transform="translate(133.119 50.73) rotate(180)"/><rect class="j" width="116.672" height="5.655" rx="2.828" transform="translate(132.767 76.105) rotate(180)"/><rect class="j" width="116.672" height="5.655" rx="2.828" transform="translate(133.022 101.833) rotate(180)"/><rect class="j" width="116.672" height="5.655" rx="2.828" transform="translate(133.277 127.561) rotate(-180)"/><rect class="j" width="116.672" height="5.655" rx="2.828" transform="translate(133.277 153.289) rotate(180)"/><rect class="j" width="116.672" height="5.655" rx="2.828" transform="translate(133.532 179.017) rotate(180)"/><rect class="k" width="22.375" height="30.324" transform="translate(119.375 6.664)"/><rect class="h" width="95.666" height="10.871" transform="translate(16.332 17.008)"/></g><path class="l" d="M1250.675,471.437,1249.667,476l-27.479,124.085-1.295,5.832-1.488,6.732-.528,2.4a16.455,16.455,0,0,1-8.542,10.9,18.675,18.675,0,0,1-7.2,2.084c-.009,0-.017,0-.026,0-.515.043-1.042.064-1.569.064l-1.209,0-2.844,0-2.586,0h-.244l-191.223-1.445c-.12-.047-.206-.077-.287-.111-.408-.155-.8-.322-1.193-.506-.18-.081-.36-.171-.536-.261-.035-.017-.064-.03-.094-.047-.167-.085-.33-.171-.489-.261s-.292-.163-.437-.249c-.125-.073-.249-.146-.369-.227-.235-.146-.467-.3-.69-.455q-.207-.135-.4-.283c-.034-.026-.073-.052-.107-.078-.133-.1-.261-.2-.39-.3l-.116-.09c-.107-.09-.215-.176-.322-.27-.377-.314-.737-.648-1.081-1-.1-.1-.2-.206-.3-.309q-.27-.277-.515-.566c-.133-.154-.266-.313-.391-.471-.116-.142-.227-.283-.334-.429a.541.541,0,0,1-.064-.081c-.116-.159-.227-.318-.338-.48s-.232-.339-.339-.515c-.1-.158-.2-.317-.3-.48a.51.51,0,0,1-.034-.06c-.1-.171-.193-.348-.287-.519s-.189-.364-.274-.549-.176-.369-.257-.557-.159-.377-.232-.566a14.95,14.95,0,0,1-.909-3.577.05.05,0,0,1,0-.025,15.045,15.045,0,0,1,.249-5.158l26.5-119.728s5.287-23.88,5.287-23.88a15.557,15.557,0,0,1,1.175-3.388,16.243,16.243,0,0,1,3.328-4.584,17.186,17.186,0,0,1,3.628-2.7c.36-.21.729-.4,1.106-.579a17.541,17.541,0,0,1,2.063-.828,18.753,18.753,0,0,1,6.037-.973l41.046.068,16.187.026,18.88.034,16.141.026,88.481.155,10.926.017a19.863,19.863,0,0,1,3.645.352C1246.3,453.993,1252.652,462.462,1250.675,471.437Z" transform="translate(-2.622 -115.241)"/></g><g transform="matrix(0.995, 0.105, -0.105, 0.995, 1052.338, 414.574)"><path class="m" d="M398.82,357.757l-22.014-19.8L339.8,304.68l-4.044,4.5-15.119-13.6a66.314,66.314,0,1,0-10.32,11.475l15.119,13.6-4.044,4.5,49.551,44.56,9.471,8.517a13.764,13.764,0,1,0,18.408-20.469Zm-166.5-62.447a51.137,51.137,0,1,1,72.216-3.831A51.136,51.136,0,0,1,232.318,295.31Z" transform="translate(-196.665 -180.082)"/><rect class="n" width="42.948" height="15.433" transform="matrix(-0.744, -0.669, 0.669, -0.744, 132.488, 136.199)"/><path class="n" d="M304.6,302.672l59.023,53.077a13.765,13.765,0,0,0,19.439-1.03h0a13.765,13.765,0,0,0-1.031-19.439L323.007,282.2Z" transform="translate(-183.409 -168.498)"/><circle class="o" cx="52.831" cy="52.831" r="52.831" transform="translate(3.512 24.759) rotate(-11.345)"/><path class="n" d="M214.068,203.28a66.311,66.311,0,1,0,93.647-4.967A66.312,66.312,0,0,0,214.068,203.28Zm11.283,10.147a51.136,51.136,0,1,1,3.831,72.216A51.137,51.137,0,0,1,225.351,213.428Z" transform="translate(-197.063 -181.309)"/><g transform="translate(28.564 27.624)"><path class="n" d="M225.911,240a2.178,2.178,0,0,0,.847-1.441,32.921,32.921,0,0,1,37.161-28.04,2.185,2.185,0,1,0,.606-4.328,37.288,37.288,0,0,0-42.095,31.761,2.185,2.185,0,0,0,3.48,2.048Z" transform="translate(-222.409 -205.82)"/></g></g></g></svg>