<svg xmlns="http://www.w3.org/2000/svg" width="35" height="55" viewBox="0 0 35 55"><defs><style>.a{fill:#2e2e2e;font-size:13px;font-family:Roboto-Regular, Roboto;}.b{fill:#fff;opacity:0;}.c{fill:none;stroke-linecap:round;stroke-linejoin:round;}.d,.e{stroke:none;}.e{fill:#2e2e2e;}</style></defs><g transform="translate(-1128.938 -224.226)"><text class="a" transform="translate(1132.938 275.226)"><tspan x="0" y="0">Title</tspan></text><g transform="translate(983.938 2.226)"><rect class="b" width="35" height="35" transform="translate(145 222)"/><g class="c" transform="translate(141.125 223.875)"><path class="d" d="M30.374,5.625V8.467H22.8V25.519H19.954V8.467H12.375V5.625Z"/><path class="e" d="M 12.37500190734863 5.625001907348633 L 12.37500190734863 8.46699333190918 L 19.95364189147949 8.46699333190918 L 19.95364189147949 25.51894378662109 L 22.79564094543457 25.51894378662109 L 22.79564094543457 8.46699333190918 L 30.37428283691406 8.46699333190918 L 30.37428283691406 5.625001907348633 L 12.37500190734863 5.625001907348633 M 12.37500190734863 4.325002670288086 L 30.37428283691406 4.325002670288086 C 31.09225082397461 4.325002670288086 31.67428207397461 4.907032012939453 31.67428207397461 5.625001907348633 L 31.67428207397461 8.46699333190918 C 31.67428207397461 9.184963226318359 31.09225082397461 9.766992568969727 30.37428283691406 9.766992568969727 L 24.09564208984375 9.766992568969727 L 24.09564208984375 25.51894378662109 C 24.09564208984375 26.23691177368164 23.51361083984375 26.81894302368164 22.79564094543457 26.81894302368164 L 19.95364189147949 26.81894302368164 C 19.23567199707031 26.81894302368164 18.65364074707031 26.23691177368164 18.65364074707031 25.51894378662109 L 18.65364074707031 9.766992568969727 L 12.37500190734863 9.766992568969727 C 11.65703201293945 9.766992568969727 11.07500076293945 9.184963226318359 11.07500076293945 8.46699333190918 L 11.07500076293945 5.625001907348633 C 11.07500076293945 4.907032012939453 11.65703201293945 4.325002670288086 12.37500190734863 4.325002670288086 Z"/></g></g></g></svg>