<svg xmlns="http://www.w3.org/2000/svg" width="60" height="55" viewBox="0 0 60 55"><defs><style>.a,.b,.c{fill:#2363a4;}.a{font-size:13px;font-family:Roboto-Regular, Roboto;}.b{opacity:0;}.c{fill-rule:evenodd;}</style></defs><text class="a" transform="translate(0 51)"><tspan x="0" y="0">Paragraph</tspan></text><g transform="translate(-133 -222)"><rect class="b" width="35" height="35" transform="translate(145 222)"/><g transform="translate(146.418 223.849)"><path class="c" d="M8.361,25.087a.965.965,0,0,1,.965-.965H22.837a.965.965,0,0,1,0,1.93H9.326A.965.965,0,0,1,8.361,25.087ZM4.5,19.3a.965.965,0,0,1,.965-.965H26.7a.965.965,0,0,1,0,1.93H5.465A.965.965,0,0,1,4.5,19.3Zm3.861-5.791a.965.965,0,0,1,.965-.965H22.837a.965.965,0,1,1,0,1.93H9.326A.965.965,0,0,1,8.361,13.506ZM4.5,7.715a.965.965,0,0,1,.965-.965H26.7a.965.965,0,0,1,0,1.93H5.465A.965.965,0,0,1,4.5,7.715Z"/></g></g></svg>