<svg xmlns="http://www.w3.org/2000/svg" width="18.962" height="17.249" viewBox="0 0 18.962 17.249"><defs><style>.a{fill:#e3e3e3;fill-rule:evenodd;}</style></defs><g transform="translate(-1.5 -4.5)"><path class="a" d="M10.119,17.916H4.086A2.742,2.742,0,0,1,1.5,15.041V7.375A2.742,2.742,0,0,1,4.086,4.5h13.79a2.742,2.742,0,0,1,2.586,2.875v7.666a2.742,2.742,0,0,1-2.586,2.875H11.843v1.917h2.586a.964.964,0,0,1,0,1.917h-6.9a.964.964,0,0,1,0-1.917h2.586ZM4.086,6.417h13.79a.914.914,0,0,1,.862.958v7.666a.914.914,0,0,1-.862.958H4.086a.914.914,0,0,1-.862-.958V7.375a.914.914,0,0,1,.862-.958Z" transform="translate(0 0)"/></g></svg>