<svg xmlns="http://www.w3.org/2000/svg" width="24.729" height="17.045" viewBox="0 0 24.729 17.045"><defs><style>.a{fill:#fff;stroke:#fff;stroke-width:0.2px;fill-rule:evenodd;}</style></defs><g transform="translate(0.114 0.1)"><path class="a" d="M24.5,14.047S19.908,5.625,12.251,5.625,0,14.047,0,14.047,4.594,22.47,12.251,22.47,24.5,14.047,24.5,14.047Zm-22.706,0a20.113,20.113,0,0,0,2.542,3.129,11.411,11.411,0,0,0,7.913,3.762,11.42,11.42,0,0,0,7.914-3.762,20.113,20.113,0,0,0,2.542-3.129,20.111,20.111,0,0,0-2.542-3.129,11.423,11.423,0,0,0-7.914-3.762,11.42,11.42,0,0,0-7.914,3.762,20.111,20.111,0,0,0-2.542,3.129Z" transform="translate(0 -5.625)"/><path class="a" d="M14.4,11.345A3.051,3.051,0,1,0,17.447,14.4,3.051,3.051,0,0,0,14.4,11.345ZM10.125,14.4A4.271,4.271,0,1,1,14.4,18.668,4.271,4.271,0,0,1,10.125,14.4Z" transform="translate(-2.146 -5.974)"/></g></svg>