<svg xmlns="http://www.w3.org/2000/svg" width="22.869" height="22.869" viewBox="0 0 22.869 22.869"><defs><style>.a{fill:#fff;}</style></defs><g transform="translate(0 0)"><g transform="translate(0 0)"><path d="M832.9,107.608a11.435,11.435,0,1,0-13.221,11.3v-7.99h-2.9v-3.3h2.9v-2.519c0-2.866,1.707-4.449,4.319-4.449a17.554,17.554,0,0,1,2.56.224v2.814h-1.442a1.653,1.653,0,0,0-1.864,1.786v2.145h3.172l-.507,3.3h-2.664v7.99A11.437,11.437,0,0,0,832.9,107.608Z" transform="translate(-810.034 -96.173)"/><path class="a" d="M829.61,113.356l.507-3.3h-3.172v-2.145a1.653,1.653,0,0,1,1.863-1.786h1.442v-2.814a17.554,17.554,0,0,0-2.56-.224c-2.612,0-4.319,1.583-4.319,4.449v2.519h-2.9v3.3h2.9v7.99a11.554,11.554,0,0,0,3.573,0v-7.99Z" transform="translate(-813.724 -98.617)"/></g></g></svg>