<svg xmlns="http://www.w3.org/2000/svg" width="466.606" height="381.121" viewBox="0 0 466.606 381.121"><defs><style>.a{opacity:0.35;}.b,.k,.n,.o{fill:none;}.b,.n{stroke:#333;}.b,.i,.k,.n,.o{stroke-linecap:round;}.b,.i,.n,.o{stroke-linejoin:round;}.b,.k{stroke-width:4.5px;}.c{fill:#fff;}.d{fill:#2363a4;opacity:0.23;}.e{fill:#b2b2b2;mix-blend-mode:overlay;}.e,.f,.g,.m{isolation:isolate;}.f{fill:#d7d7d7;}.f,.g,.m{mix-blend-mode:multiply;}.g{fill:#dedede;}.h{fill:#ffe367;}.i,.l{fill:#dd2830;}.i{stroke:#2e2e2e;stroke-width:3px;stroke-dasharray:7;}.j{opacity:0.75;}.k{stroke:#ccc;stroke-miterlimit:10;}.m{fill:#f5dc7b;}.n{stroke-width:2px;stroke-dasharray:6;}.o{stroke:#fff;stroke-width:5px;}</style></defs><g transform="translate(2.25 2.25)"><g class="a"><g transform="translate(386.183 209.236)"><line class="b" x2="14.096" transform="translate(61.827)"/><line class="b" x2="46.201"/></g><g transform="translate(245.813 376.621)"><line class="b" x2="33.106" transform="translate(29.592)"/><line class="b" x2="10.727" transform="translate(12.207)"/><line class="b" x2="4.809"/></g><g transform="translate(25.633 312.339)"><line class="b" x2="40.435" transform="translate(36.142)"/><line class="b" x2="13.102" transform="translate(14.908)"/><line class="b" x2="5.873"/></g><g transform="translate(345.187 141.466)"><line class="b" x2="40.711"/><line class="b" x2="5.905" transform="translate(50.743)"/></g><g transform="translate(0 155.5)"><line class="b" x2="36.843"/><line class="b" x2="5.344" transform="translate(45.923)"/></g><g transform="translate(58.43 81.904)"><line class="b" x2="39.639"/><line class="b" x2="5.75" transform="translate(49.407)"/></g><g transform="translate(359.044 302.483)"><line class="b" x1="54.213" transform="translate(22.823)"/><line class="b" x1="11.955"/></g><g transform="translate(360.84 241.899)"><line class="b" y2="4.121" transform="translate(12.672 21.222)"/><line class="b" x2="2.914" y2="2.914" transform="translate(18.717 18.717)"/><line class="b" x2="4.121" transform="translate(21.222 12.672)"/><line class="b" y1="2.914" x2="2.914" transform="translate(18.717 3.711)"/><line class="b" y1="4.121" transform="translate(12.672)"/><line class="b" x1="2.914" y1="2.914" transform="translate(3.711 3.711)"/><line class="b" x1="4.121" transform="translate(0 12.672)"/><line class="b" x1="2.914" y2="2.914" transform="translate(3.711 18.717)"/></g><g transform="translate(159.598)"><line class="b" y1="4.121" transform="translate(12.671)"/><line class="b" x1="2.914" y1="2.914" transform="translate(3.711 3.711)"/><line class="b" x1="4.121" transform="translate(0 12.671)"/><line class="b" x1="2.914" y2="2.914" transform="translate(3.711 18.717)"/><line class="b" y2="4.121" transform="translate(12.671 21.222)"/><line class="b" x2="2.914" y2="2.914" transform="translate(18.717 18.717)"/><line class="b" x2="4.121" transform="translate(21.222 12.671)"/><line class="b" y1="2.914" x2="2.914" transform="translate(18.717 3.711)"/></g></g><g transform="translate(67.265 7.3)"><g transform="translate(33.507 346.592)"><line class="b" x1="13.317"/><line class="b" x1="227.922" transform="translate(21.824)"/><line class="b" x1="5.487" transform="translate(256.158)"/></g><g transform="translate(0)"><g transform="translate(77.155 40.166)"><g transform="translate(0)"><path class="c" d="M282.167,553.859a10.2,10.2,0,0,0,10.2,10.2H446.318a10.2,10.2,0,0,0,10.2-10.2V529.616H282.167Z" transform="translate(-282.167 -257.628)"/><path class="c" d="M456.514,172.164a10.2,10.2,0,0,0-10.2-10.2H292.362a10.2,10.2,0,0,0-10.2,10.2v24.243H456.514Z" transform="translate(-282.167 -161.969)"/></g><circle class="b" cx="5.71" cy="5.71" r="5.71" transform="translate(81.464 11.509)"/><path class="d" d="M456.514,208.519H282.167v237.55H456.514V208.519Z" transform="translate(-282.167 -174.081)"/><path class="e" d="M292.362,161.969a10.2,10.2,0,0,0-10.2,10.2V458.2a10.2,10.2,0,0,0,10.2,10.2h.615V161.969Z" transform="translate(-282.167 -161.969)"/><path class="f" d="M503.835,161.969a10.2,10.2,0,0,1,10.2,10.2V458.2a10.2,10.2,0,0,1-10.2,10.2h-.614V161.969Z" transform="translate(-339.684 -161.969)"/><path class="b" d="M282.167,553.859a10.2,10.2,0,0,0,10.2,10.2H446.318a10.2,10.2,0,0,0,10.2-10.2V529.616H282.167Z" transform="translate(-282.167 -257.628)"/><path class="b" d="M456.514,172.164a10.2,10.2,0,0,0-10.2-10.2H292.362a10.2,10.2,0,0,0-10.2,10.2v24.243H456.514Z" transform="translate(-282.167 -161.969)"/><path class="b" d="M456.514,208.519H282.167v237.55H456.514V208.519Z" transform="translate(-282.167 -174.081)"/></g><g transform="translate(0 172.243)"><line class="b" x2="30.844" transform="translate(64.19)"/><line class="b" x2="20.408" transform="translate(38.014)"/><line class="b" x2="28.326" transform="translate(56.353 22.408)"/><line class="b" x2="53.877" transform="translate(14.814 44.817)"/><line class="b" x2="8.225" transform="translate(0 44.817)"/><line class="b" x2="20.229" transform="translate(67.802 67.225)"/><line class="b" x2="27.065" transform="translate(35.457 67.225)"/></g><g transform="translate(108.124 134.906)"><path class="g" d="M330.988,398.7a6.859,6.859,0,0,1-2.442-.448,6.955,6.955,0,0,1-4.519-6.513V325.015l7.448-4.813v-8.011a6.406,6.406,0,0,1,6.4-6.4h15.9l22.653-14.64a7.011,7.011,0,0,1,7.61,0l22.654,14.64h15.9a6.406,6.406,0,0,1,6.4,6.4V320.2l7.448,4.813v66.719a6.934,6.934,0,0,1-2.517,5.34,7.017,7.017,0,0,1-2,1.173,6.946,6.946,0,0,1-1.18.331,6.827,6.827,0,0,1-1.262.117Z" transform="translate(-324.027 -290.03)"/><g transform="translate(4.104 4.104)"><path class="h" d="M380.1,296.042l-50.524,32.651,52.1,33.671,52.1-33.671-50.524-32.651A2.906,2.906,0,0,0,380.1,296.042Z" transform="translate(-329.574 -295.577)"/><path class="i" d="M380.1,296.042l-50.524,32.651,52.1,33.671,52.1-33.671-50.524-32.651A2.906,2.906,0,0,0,380.1,296.042Z" transform="translate(-329.574 -295.577)"/><g transform="translate(7.448 15.762)"><path class="c" d="M426.653,316.882H341.938a2.3,2.3,0,0,0-2.3,2.3v51.434h89.307V319.178A2.3,2.3,0,0,0,426.653,316.882Z" transform="translate(-339.642 -316.882)"/><path class="b" d="M426.653,316.882H341.938a2.3,2.3,0,0,0-2.3,2.3v51.434h89.307V319.178A2.3,2.3,0,0,0,426.653,316.882Z" transform="translate(-339.642 -316.882)"/><g class="j" transform="translate(15.1 13.019)"><line class="k" x2="28.572"/><line class="k" x2="59.106" transform="translate(0 9.268)"/><line class="k" x2="59.106" transform="translate(0 18.535)"/><line class="k" x2="50.419" transform="translate(0 27.803)"/></g></g><path class="l" d="M381.676,374.012l-52.1-33.671v64.484a2.89,2.89,0,0,0,2.857,2.857H430.92a2.831,2.831,0,0,0,1.819-.671Z" transform="translate(-329.574 -307.224)"/><path class="l" d="M452.1,404.826V340.341L400,374.012l51.064,33A2.838,2.838,0,0,0,452.1,404.826Z" transform="translate(-347.898 -307.224)"/><path class="m" d="M428.952,343.459v59.4H329.574v1.968a2.89,2.89,0,0,0,2.857,2.857H430.92a2.89,2.89,0,0,0,2.857-2.857V340.341Z" transform="translate(-329.574 -307.224)"/><path class="n" d="M381.676,374.012l-52.1-33.671v64.484a2.89,2.89,0,0,0,2.857,2.857H430.92a2.831,2.831,0,0,0,1.819-.671Z" transform="translate(-329.574 -307.224)"/><path class="n" d="M452.1,340.341,400,374.012l51.064,33Z" transform="translate(-347.898 -307.224)"/></g></g><g transform="translate(206.954)"><path class="g" d="M502.165,196.407V172.164a10.2,10.2,0,0,0-10.2-10.2H461.121a44.535,44.535,0,0,0,36.589,61.63v15.635a1.136,1.136,0,0,0,1.667,1l2.787-1.473V196.407Z" transform="translate(-457.617 -121.803)"/><g transform="translate(4.439)"><path class="c" d="M543.609,175.23q.077-.8.123-1.614c.009-.153.018-.306.026-.459.028-.624.047-1.25.047-1.882,0-.612-.018-1.187-.044-1.744a40.091,40.091,0,1,0-40.051,41.838v14.374s36.757-19.424,39.879-50.3C543.6,175.374,543.6,175.3,543.609,175.23Z" transform="translate(-463.617 -113.792)"/><path class="b" d="M543.609,175.23q.077-.8.123-1.614c.009-.153.018-.306.026-.459.028-.624.047-1.25.047-1.882,0-.612-.018-1.187-.044-1.744a40.091,40.091,0,1,0-40.051,41.838v14.374s36.757-19.424,39.879-50.3C543.6,175.374,543.6,175.3,543.609,175.23Z" transform="translate(-463.617 -113.792)"/><g transform="translate(3.146)"><line class="b" y1="7.522" transform="translate(36.949)"/><line class="b" y1="5.762" x2="4.835" transform="translate(69.062 13.448)"/><line class="b" y1="1.306" x2="7.408" transform="translate(86.15 47.5)"/><line class="b" x2="6.514" y2="3.761" transform="translate(80.215 82.462)"/><line class="b" x1="4.835" y1="5.762" transform="translate(0 13.448)"/></g><path class="o" d="M512.125,172.629l4.624-2.713v21.393" transform="translate(-476.238 -123.871)"/></g></g></g></g></g></svg>