<svg xmlns="http://www.w3.org/2000/svg" width="30.502" height="30.496" viewBox="0 0 30.502 30.496"><defs><style>.a{fill:#2363a4;}</style></defs><path class="a" d="M15.18,39.254A7.819,7.819,0,1,0,23,47.073,7.806,7.806,0,0,0,15.18,39.254Zm0,12.9a5.083,5.083,0,1,1,5.083-5.083A5.092,5.092,0,0,1,15.18,52.156Zm9.962-13.222a1.824,1.824,0,1,1-1.824-1.824A1.819,1.819,0,0,1,25.142,38.934Zm5.178,1.851a9.025,9.025,0,0,0-2.463-6.39,9.084,9.084,0,0,0-6.39-2.463c-2.518-.143-10.064-.143-12.582,0A9.071,9.071,0,0,0,2.5,34.389a9.055,9.055,0,0,0-2.463,6.39C-.111,43.3-.111,50.843.032,53.36A9.025,9.025,0,0,0,2.5,59.75a9.1,9.1,0,0,0,6.39,2.463c2.518.143,10.064.143,12.582,0a9.025,9.025,0,0,0,6.39-2.463,9.084,9.084,0,0,0,2.463-6.39C30.463,50.843,30.463,43.3,30.32,40.785ZM27.068,56.062a5.146,5.146,0,0,1-2.9,2.9c-2.007.8-6.771.612-8.989.612s-6.989.177-8.989-.612a5.146,5.146,0,0,1-2.9-2.9c-.8-2.007-.612-6.771-.612-8.989s-.177-6.989.612-8.989a5.146,5.146,0,0,1,2.9-2.9c2.007-.8,6.771-.612,8.989-.612s6.989-.177,8.989.612a5.146,5.146,0,0,1,2.9,2.9c.8,2.007.612,6.771.612,8.989S27.864,54.061,27.068,56.062Z" transform="translate(0.075 -31.825)"/></svg>