<svg xmlns="http://www.w3.org/2000/svg" width="22.869" height="22.869" viewBox="0 0 22.869 22.869"><defs><style>.a{fill:#fff;}</style></defs><ellipse cx="11.435" cy="11.435" rx="11.435" ry="11.435" transform="translate(0 0)"/><g transform="translate(4.731 4.715)"><path class="a" d="M832.787,161.753a.786.786,0,1,0,.786.786A.786.786,0,0,0,832.787,161.753Z" transform="translate(-822.534 -159.359)"/><path class="a" d="M826,163.312a3.3,3.3,0,1,0,3.3,3.3A3.306,3.306,0,0,0,826,163.312Zm0,5.417a2.115,2.115,0,1,1,2.115-2.115A2.117,2.117,0,0,1,826,168.729Z" transform="translate(-819.245 -159.91)"/><path class="a" d="M826.734,171.456h-5.353a4.032,4.032,0,0,1-4.027-4.027v-5.352a4.032,4.032,0,0,1,4.027-4.027h5.353a4.032,4.032,0,0,1,4.027,4.027v5.352A4.032,4.032,0,0,1,826.734,171.456Zm-5.353-12.146a2.769,2.769,0,0,0-2.766,2.766v5.352a2.769,2.769,0,0,0,2.766,2.766h5.353a2.769,2.769,0,0,0,2.766-2.766v-5.352a2.769,2.769,0,0,0-2.766-2.766Z" transform="translate(-817.354 -158.049)"/></g></svg>