<svg xmlns="http://www.w3.org/2000/svg" width="22" height="23" viewBox="0 0 22 23"><defs><style>.a{fill:#fff;}</style></defs><g transform="translate(-0.571 -0.458)"><ellipse cx="11" cy="11.5" rx="11" ry="11.5" transform="translate(0.571 0.458)"/><path class="a" d="M2.62,11.714H.193V3.9H2.62ZM1.405,2.834A1.412,1.412,0,1,1,2.811,1.415,1.417,1.417,0,0,1,1.405,2.834Zm10.3,8.88H9.28V7.91c0-.907-.018-2.069-1.262-2.069-1.262,0-1.455.985-1.455,2v3.869H4.14V3.9H6.467V4.966H6.5A2.55,2.55,0,0,1,8.8,3.7c2.456,0,2.907,1.617,2.907,3.718v4.292Z" transform="translate(5.781 4.557)"/></g></svg>