<svg xmlns="http://www.w3.org/2000/svg" width="133.152" height="21.353" viewBox="0 0 133.152 21.353"><defs><style>.a,.c{fill:#2363a4;}.a{font-size:16px;font-family:Montserrat-Medium, Montserrat;font-weight:500;}.b{font-family:Montserrat-Bold, Montserrat;font-weight:700;}.c{stroke:#2363a4;stroke-miterlimit:10;stroke-width:1.131px;}</style></defs><g transform="translate(0.566 0.566)"><text class="a" transform="translate(28.587 1.787)"><tspan x="0" y="15">YOUR </tspan><tspan class="b" y="15">LOGO</tspan></text><g transform="translate(-139.897 -97.734)"><path class="c" d="M151.982,106.179h0a3.679,3.679,0,0,1,0,5.2h0a3.676,3.676,0,0,1-5.2,0h0a3.679,3.679,0,0,1,0-5.2h0A3.679,3.679,0,0,1,151.982,106.179Z" transform="translate(4.326 5.491)"/><path class="c" d="M153.7,98.813h0a3.679,3.679,0,0,1,0,5.2h0a3.679,3.679,0,0,1-5.2,0h0a3.679,3.679,0,0,1,0-5.2h0A3.676,3.676,0,0,1,153.7,98.813Z" transform="translate(5.609 0)"/><path class="c" d="M146.178,100.375h0a3.679,3.679,0,0,1,0,5.2h0a3.682,3.682,0,0,1-5.2,0h0a3.679,3.679,0,0,1,0-5.2h0A3.681,3.681,0,0,1,146.178,100.375Z" transform="translate(0 1.165)"/></g></g></svg>