<svg xmlns="http://www.w3.org/2000/svg" width="31.151" height="29.811" viewBox="0 0 31.151 29.811"><defs><style>.a{fill:#dd2830;}.b{fill:#eee;}.c{fill:#1a57a5;}.d{fill:#cfcfcf;}</style></defs><g transform="translate(-189.424 -24.595)"><path class="a" d="M135.857,172.369l-13.568-12.343a2.017,2.017,0,0,0-2.712,0l-13.568,12.343a2.006,2.006,0,0,0-.128,2.833h0a2.04,2.04,0,0,0,1.487.654,2,2,0,0,0,1.36-.526l12.2-11.112,12.208,11.112a2.01,2.01,0,0,0,2.72-2.961Z" transform="translate(84.067 -134.907)"/><path class="b" d="M115.875,183.558V196.12a1.073,1.073,0,0,0,.572.917,1.69,1.69,0,0,0,.856.218h18.64a1.692,1.692,0,0,0,.857-.218,1.089,1.089,0,0,0,.571-.917V183.558l-10.751-9.774Z" transform="translate(78.377 -142.849)"/><path class="c" d="M111.441,163.016l8.264.255-7.746,7.468Z" transform="translate(80.776 -137.05)"/><rect class="d" width="7.85" height="6.588" transform="translate(201.481 41.794)"/></g></svg>