<svg xmlns="http://www.w3.org/2000/svg" width="19" height="19" viewBox="0 0 19 19"><defs><style>.a{fill:#2e2e2e;}.b,.d{fill:none;}.b{stroke:#2e2e2e;}.c{stroke:none;}</style></defs><g transform="translate(-1656.115 -714)"><g transform="translate(1656.195 714.322)"><path class="a" d="M6.75,6.75h3.7v3.7H6.75Z" transform="translate(-6.75 -6.75)"/><path class="a" d="M11.25,11.25h3.7v3.7h-3.7Z" transform="translate(-7.554 -7.554)"/><path class="a" d="M15.75,6.75h3.7v3.7h-3.7Z" transform="translate(-8.358 -6.75)"/><path class="a" d="M24.75,6.75h3.7v3.7h-3.7Z" transform="translate(-9.967 -6.75)"/><path class="a" d="M6.75,15.75h3.7v3.7H6.75Z" transform="translate(-6.75 -8.358)"/><path class="a" d="M15.75,15.75h3.7v3.7h-3.7Z" transform="translate(-8.358 -8.358)"/><path class="a" d="M24.75,15.75h3.7v3.7h-3.7Z" transform="translate(-9.967 -8.358)"/><path class="a" d="M6.75,24.75h3.7v3.7H6.75Z" transform="translate(-6.75 -9.967)"/><path class="a" d="M15.75,24.75h3.7v3.7h-3.7Z" transform="translate(-8.358 -9.967)"/><path class="a" d="M24.75,24.75h3.7v3.7h-3.7Z" transform="translate(-9.967 -9.967)"/><path class="a" d="M20.25,11.25h3.7v3.7h-3.7Z" transform="translate(-9.163 -7.554)"/><path class="a" d="M11.25,20.25h3.7v3.7h-3.7Z" transform="translate(-7.554 -9.163)"/><path class="a" d="M20.25,20.25h3.7v3.7h-3.7Z" transform="translate(-9.163 -9.163)"/></g><g class="b" transform="translate(1656.115 714)"><rect class="c" width="19" height="19"/><rect class="d" x="0.5" y="0.5" width="18" height="18"/></g></g></svg>