<svg xmlns="http://www.w3.org/2000/svg" width="22.869" height="22.869" viewBox="0 0 22.869 22.869"><defs><style>.a{fill:#fff;}</style></defs><g transform="translate(0 0)"><ellipse cx="11.435" cy="11.435" rx="11.435" ry="11.435" transform="translate(0 0)"/><path class="a" d="M830.7,216.293a5.159,5.159,0,0,1-1.262.359c.2-.034.5-.4.62-.55a2.307,2.307,0,0,0,.419-.763c.01-.021.019-.049,0-.065a.071.071,0,0,0-.067.006,6.449,6.449,0,0,1-1.5.572.1.1,0,0,1-.1-.028,1.226,1.226,0,0,0-.131-.133,2.629,2.629,0,0,0-.724-.444,2.523,2.523,0,0,0-1.111-.179,2.656,2.656,0,0,0-1.054.3,2.717,2.717,0,0,0-.85.694,2.606,2.606,0,0,0-.508,1.017,2.752,2.752,0,0,0-.027,1.074c.008.06,0,.068-.052.06a7.988,7.988,0,0,1-5.139-2.615c-.06-.069-.092-.069-.141.005a2.605,2.605,0,0,0,.444,3.079c.1.1.2.191.316.277a2.607,2.607,0,0,1-.992-.277c-.06-.038-.091-.017-.1.052a1.653,1.653,0,0,0,.016.294,2.635,2.635,0,0,0,1.624,2.1,1.575,1.575,0,0,0,.329.1,2.943,2.943,0,0,1-.972.03c-.071-.014-.1.022-.071.09a2.735,2.735,0,0,0,2.043,1.711c.092.016.185.016.279.038-.006.008-.012.008-.017.016a3.239,3.239,0,0,1-1.4.74,4.994,4.994,0,0,1-2.119.271c-.114-.017-.138-.016-.169,0s0,.047.032.076c.145.1.291.18.441.262a7.005,7.005,0,0,0,1.417.567,7.546,7.546,0,0,0,7.324-1.713,7.686,7.686,0,0,0,2.028-5.608c0-.081.095-.125.151-.167a4.962,4.962,0,0,0,1-1.037.317.317,0,0,0,.066-.2v-.01C830.755,216.26,830.755,216.269,830.7,216.293Z" transform="translate(-812.952 -208.776)"/></g></svg>