<svg xmlns="http://www.w3.org/2000/svg" width="139.744" height="148.83" viewBox="0 0 139.744 148.83"><defs><style>.a{fill:#231f20;}</style></defs><g transform="translate(-25.026 -30.696)"><path class="a" d="M32.5,65.687c.3,22.178,1.291,44.393,2.293,66.549.061,1.375,2.212,1.38,2.142,0-1.12-22.179-2.261-44.415-4.078-66.549-.018-.226-.36-.233-.357,0Z" transform="translate(5.923 27.601)"/><path class="a" d="M33.583,104.876a20.148,20.148,0,0,0,7.6,6.022.816.816,0,1,0,.631-1.5,22.649,22.649,0,0,1-7.961-4.79c-.181-.172-.418.082-.269.267Z" transform="translate(6.746 58.547)"/><path class="a" d="M37.562,107.807c13.3,5.584,31.2,3.327,45.3,3.467q24.909.247,49.83-.2a1.377,1.377,0,0,0,0-2.752q-23.2.264-46.394.265c-15.823-.016-33.008,1.751-48.525-1.549a.4.4,0,0,0-.212.771Z" transform="translate(9.72 60.507)"/><path class="a" d="M90.659,112.806c.507-.052.83.154,1.346.086a4.866,4.866,0,0,0,1.291-.432,9.273,9.273,0,0,0,2.884-2.035,9.858,9.858,0,0,0,2.7-6.258c.1-1.379-1.974-1.33-2.123,0a9.214,9.214,0,0,1-2.381,5.124,9.843,9.843,0,0,1-1.963,1.664,15.436,15.436,0,0,1-1.832,1.294c-.267.108-.274.592.075.558Z" transform="translate(51.815 57.436)"/><path class="a" d="M96.685,134.029c-.063-22.149-1.811-44.364-3.037-66.472-.074-1.332-2.157-1.339-2.08,0,1.257,22.133,2.011,44.429,4.424,66.472.047.432.694.457.692,0Z" transform="translate(52.748 28.426)"/><path class="a" d="M32.724,67.442c17.574,2.053,35.982.722,53.669.66q26.832-.1,53.667-.323a1.261,1.261,0,0,0,0-2.521q-26.834.067-53.667.308c-17.7.143-36.1-.97-53.669,1.287a.294.294,0,0,0,0,.588Z" transform="translate(5.878 27.398)"/><path class="a" d="M44.32,30.976a60.072,60.072,0,0,0-9.978,21.28.768.768,0,0,0,1.479.409,83.114,83.114,0,0,1,9.116-21.328c.246-.4-.351-.724-.617-.36Z" transform="translate(7.366 0.096)"/><path class="a" d="M40.552,31.148c16.38,8.094,34.024,13.867,51.067,20.394,18.176,6.961,36.3,14.062,54.231,21.62,1.456.613,2.1-1.766.654-2.37C129.1,63.5,111.526,56.638,93.894,49.919,76.38,43.245,58.834,35.649,40.739,30.7c-.256-.07-.437.317-.186.443Z" transform="translate(12.213)"/><path class="a" d="M92.3,76.106c3.006-2.069,5.021-5.8,6.974-8.82,2.585-4,4.926-8.164,7.117-12.389.67-1.294-1.291-2.443-1.959-1.146q-3.092,6.01-6.506,11.828c-1.947,3.313-4.76,6.712-5.733,10.444a.074.074,0,0,0,.108.082Z" transform="translate(53.241 17.824)"/><path class="a" d="M33.578,44.05c4,5.091,9.5,7.707,15.378,10.184,9.7,4.089,19.639,7.615,29.612,10.982,20.052,6.771,40.223,13.194,60.352,19.732,1.676.545,2.4-2.094.726-2.633-18.031-5.821-36.089-11.558-54.1-17.45C68.912,59.423,47.464,55.2,33.89,43.738a.221.221,0,0,0-.312.312Z" transform="translate(6.735 10.29)"/><path class="a" d="M37.336,36.247c3.1,8.431,6.8,16.683,10.224,24.987a.68.68,0,1,0,1.248-.527c-3.5-8.273-6.768-16.7-10.59-24.833-.229-.491-1.072-.143-.882.373Z" transform="translate(9.737 3.917)"/><path class="a" d="M41.515,32.151c.832.366,3.112,7.2,3.44,7.949q1.815,4.16,3.63,8.318,3.891,8.914,7.779,17.827c.5,1.146,2.2.158,1.687-.986L47.978,42.809c-1.44-3.207-2.872-10.867-6.533-11.95a.61.61,0,0,0-.678.276c-.355.631-.344.672-.011,1.328a.336.336,0,0,0,.371.151l.333-.059a.223.223,0,0,0,.054-.4Z" transform="translate(12.27 0.112)"/><path class="a" d="M53.035,36.573C57.9,46.738,62.9,56.789,67.348,67.148c.3.692,1.319.1,1.016-.593A335.174,335.174,0,0,0,53.6,36.245c-.21-.369-.74-.045-.561.328Z" transform="translate(22.175 4.27)"/><path class="a" d="M64.183,40.556c4.134,10.618,9.136,20.96,13.756,31.376.355.8,1.545.108,1.18-.69-4.738-10.3-9.166-20.848-14.378-30.921-.156-.3-.683-.091-.558.235Z" transform="translate(31.026 7.515)"/><path class="a" d="M77.089,44.961c3.46,10.26,7.82,20.279,11.73,30.376.348.895,1.809.479,1.44-.4-4.229-10.032-8.08-20.32-12.746-30.157-.113-.235-.507-.07-.423.177Z" transform="translate(41.262 11.077)"/><g transform="translate(138.741 67.459)"><path class="a" d="M88.559,51.413a.1.1,0,0,0,0-.21.1.1,0,0,0,0,.21Z" transform="translate(-88.457 -51.203)"/></g><path class="a" d="M87.177,50.889c4.372,8.84,8.549,17.492,11.468,26.952.255.825,1.563.466,1.3-.359-3.019-9.315-6.8-18.718-12.237-26.9a.305.305,0,0,0-.527.308Z" transform="translate(49.239 15.648)"/><path class="a" d="M35.479,42.422c.009.559-.307.764-.238,1.35a9.926,9.926,0,0,0,.547,2.128,14.3,14.3,0,0,0,2.126,3.928.711.711,0,1,0,1.122-.866,12.872,12.872,0,0,1-2.219-3.817c-.208-.567-.294-1.187-.515-1.744-.122-.31-.513-.731-.575-1.013a.127.127,0,0,0-.247.034Z" transform="translate(8.09 9.197)"/><path class="a" d="M35.627,40.015a90.213,90.213,0,0,1,5.468,13.531c.177.57,1.086.316.891-.246a93.3,93.3,0,0,0-5.959-13.519c-.142-.264-.532-.03-.4.233Z" transform="translate(8.382 7.111)"/><path class="a" d="M36.536,38.591a72.573,72.573,0,0,0,8.962,20.9.7.7,0,0,0,1.215-.712A148.918,148.918,0,0,1,37.226,38.4a.358.358,0,0,0-.69.19Z" transform="translate(9.115 5.913)"/><path class="a" d="M36.976,37.537a178.477,178.477,0,0,1,8.519,20.455c.224.654,1.275.359,1.033-.285a153.266,153.266,0,0,0-9.335-20.3c-.079-.143-.289-.016-.217.127Z" transform="translate(9.461 5.272)"/><path class="a" d="M44.1,32.637c2.721,12.047,9.236,23.972,15.014,34.789.484.905,1.881.1,1.379-.8-6.158-11.054-10.385-22.907-16.24-34.049-.045-.088-.174-.025-.152.065Z" transform="translate(15.119 1.454)"/><path class="a" d="M46.448,34c3.989,12.359,9.5,24.293,15.082,36,.439.921,1.843.115,1.379-.807C57.072,57.607,52.092,45.686,46.66,33.915c-.056-.12-.251-.036-.212.088Z" transform="translate(16.978 2.505)"/><path class="a" d="M48.512,34.985c4.261,12.332,10.353,24.234,15.6,36.173.421.957,1.857.131,1.416-.826C60.094,58.543,55.238,46.145,48.858,34.838c-.1-.181-.418-.059-.346.147Z" transform="translate(18.609 3.213)"/><path class="a" d="M50.209,35.645c4.283,11.991,9.865,23.562,15.658,34.883.516,1.008,2.065.113,1.524-.891-6.041-11.194-11.262-22.7-16.681-34.2-.131-.278-.6-.082-.5.21Z" transform="translate(19.951 3.65)"/><path class="a" d="M52.061,36.769C57.492,48.821,63.707,60.56,69.591,72.4c.479.964,1.956.113,1.452-.848C64.915,59.863,59.066,47.961,52.5,36.514c-.165-.289-.566-.036-.436.255Z" transform="translate(21.411 4.511)"/><path class="a" d="M66.418,41.089a374.932,374.932,0,0,0,14.437,35.5c.246.534,1.067.068.8-.466A332.264,332.264,0,0,1,66.823,40.978c-.091-.251-.493-.147-.405.111Z" transform="translate(32.802 8.036)"/><path class="a" d="M68.931,43.114A172.263,172.263,0,0,0,81.339,74.323c.344.688,1.388.082,1.034-.6A241.473,241.473,0,0,1,69.58,42.936a.337.337,0,0,0-.649.177Z" transform="translate(34.794 9.518)"/><path class="a" d="M70.264,43.938c4.412,10.5,9.277,20.692,12.963,31.5.324.948,1.852.518,1.5-.414-4-10.609-8.168-21.518-13.926-31.317-.161-.276-.67-.09-.538.228Z" transform="translate(35.844 10.21)"/><path class="a" d="M72.108,44.993c3.664,11.3,8.788,22.368,13.458,33.289.371.864,1.9.233,1.536-.647-4.577-10.961-8.947-22.35-14.5-32.852a.274.274,0,0,0-.5.21Z" transform="translate(37.312 11.062)"/><path class="a" d="M74.2,45.447c3.847,9.849,7.958,19.641,11.506,29.6a.586.586,0,1,0,1.076-.454c-4.283-9.638-8.044-19.537-12.035-29.3-.136-.332-.681-.192-.547.152Z" transform="translate(38.961 11.423)"/><path class="a" d="M76.34,47.1c3.842,9.743,7.915,19.4,11.887,29.089a.607.607,0,1,0,1.113-.47c-4.109-9.63-8.128-19.311-12.368-28.886-.156-.355-.778-.1-.633.267Z" transform="translate(40.66 12.66)"/><path class="a" d="M88.046,49.955c3.247,7.814,6.712,15.52,9.785,23.407.289.739,1.493.409,1.2-.328-3.177-7.875-6.4-15.815-10.233-23.395-.2-.407-.927-.117-.748.316Z" transform="translate(49.934 14.862)"/><path class="a" d="M89.737,50.5c2.727,6.871,5.738,13.63,8.594,20.45a.7.7,0,1,0,1.285-.543c-3.161-6.69-6.172-13.454-9.457-20.084-.115-.231-.52-.068-.423.177Z" transform="translate(51.286 15.468)"/><path class="a" d="M92.689,53.11c1.255,3.619,2.847,7.124,4.193,10.71a.754.754,0,1,0,1.384-.583c-1.6-3.48-2.971-7.078-4.656-10.516a.506.506,0,0,0-.921.389Z" transform="translate(53.617 17.264)"/><path class="a" d="M93.976,52.889a32.638,32.638,0,0,1,2.976,8.143c.127.706,1.325.38,1.072-.3a40.428,40.428,0,0,0-3.668-8.069.22.22,0,0,0-.38.222Z" transform="translate(54.638 17.331)"/><path class="a" d="M96.273,55.15q.422.9.844,1.8c.283.6,1.23.072.907-.531l-.936-1.746c-.29-.541-1.072-.065-.816.477Z" transform="translate(56.439 18.818)"/><path class="a" d="M35.162,83.052c33.983-2.106,68.127-2.1,102.162-2.816a1.04,1.04,0,0,0,0-2.08c-33.895.791-68.484-.224-102.162,4.035-.534.066-.567.9,0,.861Z" transform="translate(7.708 37.622)"/><path class="a" d="M35.365,91.084C40.711,83.623,45.709,75.841,50.8,68.2c.443-.665-.622-1.511-1.122-.866a130.114,130.114,0,0,0-14.84,23.44.3.3,0,0,0,.525.307Z" transform="translate(7.751 28.864)"/><path class="a" d="M50.338,90.4A182.24,182.24,0,0,1,66.5,68.6c.719-.823-.488-2.033-1.2-1.2A108.762,108.762,0,0,0,49.976,90.185a.21.21,0,0,0,.362.212Z" transform="translate(19.759 28.872)"/><path class="a" d="M66,89.07A153.933,153.933,0,0,0,80.191,66.436c.491-.92-.916-1.741-1.4-.817-4.109,7.892-8.8,15.392-13.3,23.056-.181.308.278.694.511.394Z" transform="translate(32.044 27.363)"/><path class="a" d="M79.4,88.326c4.8-6.66,8.861-13.865,13.074-20.9a.851.851,0,0,0-1.468-.859c-4.152,7.072-8.524,14.091-12.06,21.5a.262.262,0,0,0,.454.264Z" transform="translate(42.722 28.107)"/><path class="a" d="M89.177,84.082a32.467,32.467,0,0,1,5.1-9.148c.6-.733-.468-1.78-1.04-1.04A20.964,20.964,0,0,0,88.75,83.965a.221.221,0,0,0,.427.117Z" transform="translate(50.513 34.043)"/><path class="a" d="M32.951,74.669c1,3.6,2.083,7.173,3.17,10.749.226.74,1.416.4,1.155-.319-1.285-3.524-2.573-7.044-3.939-10.538-.091-.233-.455-.147-.385.108Z" transform="translate(6.275 34.665)"/><path class="a" d="M32.935,72.16c-.127,3.756,1.54,7.707,3.327,10.939a.6.6,0,0,0,1.034-.6c-2.019-3.343-2.768-6.726-3.845-10.4a.264.264,0,0,0-.516.07Z" transform="translate(6.264 32.665)"/><path class="a" d="M31.925,67.287C33.9,72.93,35.991,78.536,37.891,84.2c.231.688,1.341.357,1.074-.3-2.27-5.548-4.353-11.178-6.554-16.755-.117-.3-.593-.177-.486.134Z" transform="translate(5.457 28.764)"/><path class="a" d="M33.5,66.2c1.4,5.425,3.189,10.744,4.874,16.084.269.855,1.64.466,1.336-.368-1.933-5.292-3.772-10.627-5.98-15.814-.057-.134-.265-.038-.229.1Z" transform="translate(6.713 28.02)"/><path class="a" d="M34.8,66.883A92.154,92.154,0,0,0,38.929,78.55c.335.844,1.587.283,1.133-.479a47.4,47.4,0,0,1-4.53-11.389.379.379,0,0,0-.73.2Z" transform="translate(7.739 28.315)"/><path class="a" d="M36.2,67a37.871,37.871,0,0,0,3.551,10.858c.441.916,1.877.1,1.379-.807a43.713,43.713,0,0,1-3.876-10.342c-.179-.7-1.155-.385-1.054.29Z" transform="translate(8.85 28.234)"/><path class="a" d="M37.834,66.752a18.857,18.857,0,0,0,2.354,8.381c.446.889,1.9.025,1.323-.774a19.261,19.261,0,0,1-3-7.7c-.079-.389-.681-.292-.681.091Z" transform="translate(10.153 28.313)"/><path class="a" d="M38.9,66.866c.728,2.121,1.545,4.218,2.221,6.355a.649.649,0,1,0,1.19-.5c-.939-2.029-1.751-4.125-2.644-6.176-.188-.436-.921-.125-.767.323Z" transform="translate(10.98 28.251)"/><path class="a" d="M40.374,67.336c1.468.267.183,3.77,2.309,3.614,1.085-.079,1.7-1.829.457-2.164-.722-.194-1.031.95-.308,1.113-.889-.2-.73-1.527-1.024-2.216a1.562,1.562,0,0,0-1.336-1.07c-.409-.041-.506.649-.1.722Z" transform="translate(11.96 28.471)"/><path class="a" d="M40.966,67c.375.455.635.941,1.033,1.386q.683.766,1.37,1.533c.6.674,1.651-.362.995-.995q-.739-.713-1.477-1.425c-.428-.412-.9-.687-1.341-1.077a.41.41,0,0,0-.579.579Z" transform="translate(12.551 28.23)"/><path class="a" d="M52.767,76.624a4.65,4.65,0,0,0,1.285,5.283c.4.368,1-.246.593-.593a4.786,4.786,0,0,1-1.513-4.537c.029-.2-.26-.378-.366-.152Z" transform="translate(21.701 36.325)"/><path class="a" d="M53.1,75.787q.807,2.415,1.612,4.831c.143.428.835.221.669-.185L53.421,75.7c-.081-.194-.394-.122-.324.09Z" transform="translate(22.244 35.583)"/><path class="a" d="M54.015,74.216c.436,2.664,1.332,5.262,1.949,7.89.213.905,1.7.475,1.377-.38-.961-2.556-1.673-5.242-2.807-7.728-.143-.316-.566-.074-.518.219Z" transform="translate(22.977 34.208)"/><path class="a" d="M54.741,72.835a104.968,104.968,0,0,0,3.121,11.481c.267.911,1.725.5,1.418-.391a105.634,105.634,0,0,0-4.118-11.269c-.12-.253-.463-.061-.421.179Z" transform="translate(23.553 33.167)"/><path class="a" d="M55.908,72.536A27.569,27.569,0,0,0,59.87,83.7c.455.8,1.744.009,1.215-.712a27.651,27.651,0,0,1-4.311-10.566c-.109-.477-.911-.384-.866.117Z" transform="translate(24.479 32.827)"/><path class="a" d="M57.117,71.414a26.551,26.551,0,0,0,4.839,11.764.586.586,0,1,0,.923-.714,31.449,31.449,0,0,1-5.391-11.1c-.057-.2-.4-.169-.371.05Z" transform="translate(25.438 32.134)"/><path class="a" d="M57.582,69.209a164.447,164.447,0,0,0,6.956,17.556c.324.73,1.459.1,1.09-.636-2.818-5.593-5.167-11.344-7.682-17.074-.091-.208-.43-.061-.364.154Z" transform="translate(25.801 30.328)"/><path class="a" d="M58.582,68.6c2.5,6.395,5.113,12.757,7.463,19.207a.639.639,0,1,0,1.172-.495c-2.8-6.233-5.349-12.59-8.006-18.886-.16-.376-.783-.222-.629.174Z" transform="translate(26.581 29.738)"/><path class="a" d="M59.284,67.933c2.279,6.646,4.847,13.282,7.533,19.774.323.782,1.61.459,1.3-.357-2.544-6.608-5.269-13.237-8.216-19.675-.158-.346-.737-.1-.613.258Z" transform="translate(27.143 29.181)"/><path class="a" d="M60.5,67.044c2.132,5.982,4.412,11.913,6.638,17.859.376,1,2,.536,1.6-.441-2.451-5.93-4.849-11.884-7.395-17.775-.206-.477-1.02-.136-.844.357Z" transform="translate(28.1 28.349)"/><path class="a" d="M62.371,67.247c1.509,5.251,3.146,10.5,4.921,15.67.317.927,1.795.531,1.479-.409-1.751-5.192-3.661-10.365-5.67-15.462-.174-.441-.866-.278-.73.2Z" transform="translate(29.59 28.611)"/><path class="a" d="M64.007,67.955c1.667,4.017,3.184,8.1,4.747,12.156a.879.879,0,1,0,1.613-.679c-1.877-3.928-3.8-7.834-5.574-11.809-.2-.439-.975-.12-.787.332Z" transform="translate(30.878 29.107)"/><path class="a" d="M65.568,66.3c1,4.03,2.137,8.033,3.442,11.974.355,1.074,2.06.613,1.7-.468-1.309-3.958-2.788-7.866-4.392-11.712a.39.39,0,0,0-.751.206Z" transform="translate(32.127 27.848)"/><path class="a" d="M67.216,67.071a44.98,44.98,0,0,0,1.92,6.732c.4,1.19,2.2.416,1.574-.663a25.9,25.9,0,0,1-2.4-6.37c-.188-.717-1.217-.405-1.094.3Z" transform="translate(33.437 28.273)"/><path class="a" d="M69.059,66.24a21.626,21.626,0,0,0,1.857,5.742c.371.789,1.674.022,1.162-.679a14.336,14.336,0,0,1-2.35-5.247c-.106-.441-.737-.246-.669.185Z" transform="translate(34.902 27.832)"/><path class="a" d="M70.663,66.977q.25.909.5,1.82c.2.73,1.384.373,1.115-.307l-.7-1.764c-.219-.552-1.077-.351-.912.251Z" transform="translate(36.161 28.305)"/><path class="a" d="M80.315,76.9l1.043,3.627c.174.606,1.153.316.932-.256Q81.6,78.5,80.922,76.735c-.143-.371-.722-.231-.608.167Z" transform="translate(43.817 36.324)"/><path class="a" d="M81.2,75.78a4.051,4.051,0,0,0,.289,1.985c.219.8.452,1.606.679,2.409.272.968,1.843.488,1.477-.409-.317-.776-.627-1.556-.952-2.332a4.221,4.221,0,0,0-.984-1.787.309.309,0,0,0-.509.134Z" transform="translate(44.495 35.568)"/><path class="a" d="M81.707,73.934a33.269,33.269,0,0,1,2.838,8.334c.111.606,1.122.346.932-.256a50.641,50.641,0,0,0-3.317-8.343c-.158-.3-.6-.036-.454.265Z" transform="translate(44.909 33.96)"/><path class="a" d="M82.739,72.185c1.291,3.612,2.653,7.207,3.783,10.873a.638.638,0,1,0,1.171-.495c-1.594-3.453-2.967-7.008-4.406-10.529-.134-.33-.672-.2-.547.151Z" transform="translate(45.736 32.618)"/><path class="a" d="M83.533,71.274c1.056,4.693,3.2,9.057,5.392,13.3.4.782,1.665.047,1.18-.69A61.758,61.758,0,0,1,84.16,71.1a.326.326,0,0,0-.627.174Z" transform="translate(46.371 31.85)"/><path class="a" d="M84.2,69.965c1.637,5.513,4.186,10.83,6.378,16.138a.868.868,0,1,0,1.594-.672C89.82,80.189,87.7,74.683,84.817,69.707a.337.337,0,0,0-.613.258Z" transform="translate(46.9 30.797)"/><path class="a" d="M85.067,69.264c2.01,5.039,3.964,10.1,5.966,15.145a.8.8,0,1,0,1.459-.617c-2.2-4.959-4.446-9.9-6.638-14.86-.194-.441-.968-.122-.787.332Z" transform="translate(47.574 30.143)"/><path class="a" d="M85.884,67.935c1.124,5.133,4.215,10.4,6.445,15.136.482,1.027,2,.133,1.524-.891-2.221-4.711-4.313-10.383-7.529-14.5-.176-.224-.489.025-.439.255Z" transform="translate(48.239 29.249)"/><path class="a" d="M86.76,67.5c.366,2.184,1.594,4.245,2.5,6.251q1.732,3.837,3.272,7.752a.92.92,0,1,0,1.689-.712c-1.068-2.486-2.18-4.953-3.36-7.39-1.022-2.108-1.97-4.494-3.645-6.167a.275.275,0,0,0-.455.265Z" transform="translate(48.934 28.9)"/><path class="a" d="M88.348,66.528c1.16,4.45,3.239,8.449,4.907,12.7.376.963,1.8.287,1.267-.534-2.443-3.784-3.931-8.177-5.667-12.3-.127-.3-.6-.2-.507.138Z" transform="translate(50.188 28.153)"/><path class="a" d="M89.452,67.234a16.84,16.84,0,0,1,3,6.14c.14.769,1.447.393,1.156-.319-.923-2.246-1.839-4.512-3.663-6.2-.251-.233-.7.072-.495.382Z" transform="translate(51.031 28.596)"/><path class="a" d="M90.771,67.156q.551,1.8,1.1,3.609c.136.443.85.237.69-.19Q91.9,68.8,91.237,67.027c-.108-.285-.559-.174-.466.129Z" transform="translate(52.107 28.669)"/><path class="a" d="M48.391,89.505c-.086,1.793-.206,3.585-.231,5.378a.61.61,0,0,0,1.219,0c-.025-1.793-.145-3.585-.231-5.378a.379.379,0,0,0-.757,0Z" transform="translate(18.339 46.33)"/><path class="a" d="M48.682,90.459a10.069,10.069,0,0,1,4.634.678c.861.35,1.309-1.128.391-1.418a8.4,8.4,0,0,0-5.134-.065c-.421.131-.371.843.109.8Z" transform="translate(18.439 46.443)"/><path class="a" d="M48.911,94.121a7.369,7.369,0,0,0,4.51-.047.7.7,0,1,0-.541-1.285,7,7,0,0,1-3.863.547c-.463-.056-.515.654-.106.785Z" transform="translate(18.715 49.159)"/><path class="a" d="M51.832,95.9a6.49,6.49,0,0,0,.2-5.937c-.342-.751-1.511-.1-1.124.658a6.464,6.464,0,0,1,.409,5.063.284.284,0,0,0,.518.217Z" transform="translate(20.454 46.72)"/><path class="a" d="M54.879,92.167c12.156-.091,24.279-.513,36.43.131,1.373.074,1.379-2.09,0-2.142-12.21-.455-24.4-.3-36.45,1.866-.082.014-.063.145.02.145Z" transform="translate(23.608 46.97)"/><path class="a" d="M48.047,98.849c-.086,1.592-.16,3.186-.231,4.779a.63.63,0,0,0,1.26,0q-.1-2.391-.231-4.779a.4.4,0,0,0-.8,0Z" transform="translate(18.065 53.72)"/><path class="a" d="M47.963,99.29c1.8.091,3.582.3,5.378.387.893.047.895-1.431,0-1.386-1.8.091-3.578.3-5.378.389a.3.3,0,0,0,0,.61Z" transform="translate(17.95 53.583)"/><path class="a" d="M48.292,102.968c1.784.219,3.58.391,5.378.452a.746.746,0,0,0,0-1.492c-1.8.063-3.594.235-5.378.452a.294.294,0,0,0,0,.588Z" transform="translate(18.219 56.466)"/><path class="a" d="M51.316,99.039a37.558,37.558,0,0,0-.541,6.02c-.054.907,1.461.907,1.407,0a37.557,37.557,0,0,0-.541-6.02.17.17,0,0,0-.324,0Z" transform="translate(20.411 54.081)"/><path class="a" d="M57.294,101.984c10.932.5,21.937.036,32.877-.142,1.242-.02,1.244-1.974,0-1.933-10.946.359-21.972.432-32.877,1.465a.3.3,0,0,0,0,.61Z" transform="translate(25.347 54.867)"/><path class="a" d="M38.14,103.15c-.027-.122-.014.014.147.115a2.384,2.384,0,0,1,.369.2c.3.264.461.7.757.99a1.316,1.316,0,0,0,1.916.1c.631-.541-.2-1.612-.891-1.155-.039.025-.6-.76-.8-.92a1.463,1.463,0,0,0-1.051-.348.823.823,0,0,0-.681,1.11c.059.136.262.036.229-.1Z" transform="translate(10.165 56.626)"/><path class="a" d="M39.342,101.948a5.853,5.853,0,0,0,3.116,3.11.366.366,0,1,0,.283-.672,5.274,5.274,0,0,1-2.945-2.7c-.151-.308-.584-.038-.454.265Z" transform="translate(11.329 56.164)"/><path class="a" d="M87.584,106.12a4,4,0,0,0,2.044-.748,5.268,5.268,0,0,0,1.486-2.04.7.7,0,1,0-1.285-.541,6.854,6.854,0,0,1-2.327,3.137.106.106,0,0,0,.082.192Z" transform="translate(49.487 56.754)"/><path class="a" d="M89.113,106.373c.658-.782,1.28-1.585,1.9-2.4.253-.328-.314-.665-.561-.328-.588.8-1.171,1.6-1.721,2.433-.151.226.2.5.38.292Z" transform="translate(50.473 57.719)"/><path class="a" d="M28.811,42.576c-.1.577-.488.773-.579,1.368a7.348,7.348,0,0,0,.081,2.106,10.907,10.907,0,0,0,1.8,4.543c.482.714,1.649,0,1.144-.667A9.884,9.884,0,0,1,29.39,46c-.156-.744-.16-1.486-.262-2.232a7.779,7.779,0,0,1-.276-1.187c0-.023-.036-.029-.041-.005Z" transform="translate(2.504 9.405)"/><path class="a" d="M25.026,37.852A54.318,54.318,0,0,0,30.085,60.99c.213.464.909.061.69-.4a56.076,56.076,0,0,1-5.33-22.735.21.21,0,0,0-.419,0Z" transform="translate(0 5.511)"/><path class="a" d="M96.3,44.765c3.417,2.375,6.949,4.593,10.435,6.866.69.452,1.35-.672.647-1.106-3.539-2.182-7.047-4.426-10.649-6.5a.431.431,0,0,0-.434.744Z" transform="translate(56.343 10.512)"/><path class="a" d="M98.953,41.79q3.3,3.4,6.606,6.8c.348.359.909-.2.549-.55l-6.8-6.6a.252.252,0,0,0-.357.355Z" transform="translate(58.546 8.454)"/><path class="a" d="M96.235,116.593a13.379,13.379,0,0,0,5.932-8.989c.143-.755-1.016-1.076-1.155-.317a15.09,15.09,0,0,1-5.2,8.761c-.3.262.088.749.421.545Z" transform="translate(56.031 60.371)"/><path class="a" d="M98.758,116.4c1.018-1.881,2-3.777,2.99-5.676.206-.4-.407-.749-.6-.35-.929,1.934-1.859,3.865-2.754,5.814-.111.242.231.454.362.212Z" transform="translate(58.144 63.021)"/><g transform="translate(27.26 163.775)"><path class="a" d="M26.486,105.37a.221.221,0,0,0,0-.441.221.221,0,0,0,0,.441Z" transform="translate(-26.272 -104.929)"/></g><path class="a" d="M26.289,101.923a13.968,13.968,0,0,0,3.833,10.742c.314.335.83-.179.5-.506a13.4,13.4,0,0,1-3.98-10.236c.009-.231-.341-.228-.357,0Z" transform="translate(0.971 56.326)"/><path class="a" d="M28.354,102.485c-.229,4.869,2.714,9.412,6.811,11.844a.5.5,0,0,0,.509-.871c-4.19-2.323-6.352-6.3-6.837-10.973a.241.241,0,0,0-.482,0Z" transform="translate(2.628 56.724)"/></g></svg>