<svg xmlns="http://www.w3.org/2000/svg" width="32.953" height="32.953" viewBox="0 0 32.953 32.953"><defs><style>.a,.b{fill:#fff;}.b{fill-rule:evenodd;}</style></defs><g transform="translate(-802.772 -361.819)"><circle cx="11.681" cy="11.681" r="11.681" transform="matrix(0.654, -0.756, 0.756, 0.654, 802.772, 379.486)"/><path class="a" d="M818.167,389.795l.974-3.634a6.726,6.726,0,1,1,2.679,2.655Zm3.834-2.34.23.137a5.458,5.458,0,1,0-1.868-1.851l.141.232L819.961,388Z" transform="translate(-5.23 -4.889)"/><path class="b" d="M829.356,385.728a1.127,1.127,0,0,0-.961-.217c-.25.1-.409.493-.57.692a.24.24,0,0,1-.31.067,4.349,4.349,0,0,1-2.172-1.861.267.267,0,0,1,.033-.364,1.462,1.462,0,0,0,.395-.641,1.4,1.4,0,0,0-.176-.758,1.8,1.8,0,0,0-.56-.844.767.767,0,0,0-.833.124,1.69,1.69,0,0,0-.586,1.34,1.879,1.879,0,0,0,.053.425,3.529,3.529,0,0,0,.407.94,7.386,7.386,0,0,0,.426.647,6.572,6.572,0,0,0,1.847,1.715,5.545,5.545,0,0,0,1.152.547,2.557,2.557,0,0,0,1.34.212,1.625,1.625,0,0,0,1.216-.9.79.79,0,0,0,.056-.462C830.043,386.07,829.613,385.881,829.356,385.728Z" transform="translate(-7.081 -6.763)"/></g></svg>